<svg xmlns="http://www.w3.org/2000/svg" xmlns:xlink="http://www.w3.org/1999/xlink" width="500" zoomAndPan="magnify" viewBox="0 0 375 374.999991" height="500" preserveAspectRatio="xMidYMid meet" version="1.0"><defs><clipPath id="id1"><path d="M 21.328125 1 L 353.578125 1 L 353.578125 374 L 21.328125 374 Z M 21.328125 1 " clip-rule="nonzero"/></clipPath></defs><g clip-path="url(#id1)"><path fill="#4c69f6" d="M 264.660156 259.59375 L 270.0625 275.210938 C 270.949219 277.75 273.320312 279.460938 275.992188 279.496094 L 292.460938 279.859375 L 279.351562 289.839844 C 277.210938 291.421875 276.285156 294.191406 277.078125 296.761719 L 281.886719 312.609375 L 268.28125 303.121094 C 266.074219 301.636719 263.175781 301.636719 261.003906 303.152344 L 247.464844 312.578125 L 252.207031 296.761719 C 252.996094 294.191406 252.109375 291.421875 249.96875 289.777344 L 236.792969 279.824219 L 253.292969 279.460938 C 255.960938 279.429688 258.335938 277.714844 259.222656 275.179688 Z M 264.890625 233.695312 C 262.089844 233.597656 259.519531 235.34375 258.597656 237.980469 L 248.582031 266.777344 L 218.179688 267.371094 C 214.621094 267.4375 211.824219 270.335938 211.855469 273.859375 C 211.886719 275.839844 212.8125 277.683594 214.390625 278.902344 L 238.703125 297.320312 L 229.875 326.480469 C 228.851562 329.84375 230.761719 333.433594 234.15625 334.421875 C 236 334.984375 238.042969 334.6875 239.625 333.566406 L 264.625 316.167969 L 289.660156 333.597656 C 292.558594 335.574219 296.546875 334.816406 298.554688 331.886719 C 299.609375 330.304688 299.9375 328.328125 299.378906 326.515625 L 290.582031 297.320312 L 314.894531 278.933594 C 317.726562 276.792969 318.253906 272.742188 316.113281 269.941406 C 314.925781 268.390625 313.082031 267.46875 311.136719 267.4375 L 280.699219 266.777344 L 270.6875 237.980469 C 269.894531 235.738281 267.886719 234.089844 265.515625 233.761719 C 265.316406 233.726562 265.085938 233.695312 264.890625 233.695312 Z M 264.625 208.160156 C 306.722656 208.160156 340.71875 242.128906 340.71875 284.242188 C 340.71875 326.316406 306.722656 360.253906 264.625 360.253906 C 222.5625 360.253906 188.597656 326.316406 188.597656 284.242188 C 188.597656 242.128906 222.5625 208.160156 264.625 208.160156 Z M 145.480469 169.3125 C 177.53125 169.3125 206.191406 182.65625 226.449219 204.105469 C 196.539062 218.40625 175.820312 248.917969 175.820312 284.242188 C 175.820312 293.105469 177.136719 301.636719 179.574219 309.710938 L 34.109375 309.710938 L 34.109375 280.683594 C 34.109375 218.867188 83.683594 169.3125 145.480469 169.3125 Z M 145.480469 14.746094 C 184.679688 14.746094 216.300781 46.410156 216.300781 85.621094 C 216.300781 124.863281 184.679688 156.496094 145.480469 156.496094 C 106.28125 156.496094 74.660156 124.863281 74.660156 85.621094 C 74.660156 46.410156 106.28125 14.710938 145.480469 14.710938 Z M 145.480469 1.925781 C 99.363281 1.925781 61.84375 39.488281 61.84375 85.621094 C 61.84375 119.261719 81.839844 148.289062 110.53125 161.535156 C 58.945312 176.625 21.328125 224.140625 21.328125 280.683594 L 21.328125 316.136719 C 21.328125 319.695312 24.226562 322.5625 27.75 322.527344 L 184.613281 322.527344 C 198.941406 352.378906 229.378906 373.074219 264.625 373.074219 C 313.609375 373.074219 353.5 333.203125 353.5 284.242188 C 353.5 235.210938 313.609375 195.375 264.625 195.375 C 255.796875 195.375 247.265625 196.691406 239.195312 199.132812 C 223.84375 181.503906 203.621094 168.222656 180.5625 161.46875 C 209.1875 148.191406 229.117188 119.226562 229.117188 85.621094 C 229.117188 39.488281 191.597656 1.925781 145.480469 1.925781 " fill-opacity="1" fill-rule="nonzero"/></g></svg>