<svg xmlns="http://www.w3.org/2000/svg" xmlns:xlink="http://www.w3.org/1999/xlink" width="500" zoomAndPan="magnify" viewBox="0 0 375 374.999991" height="500" preserveAspectRatio="xMidYMid meet" version="1.0"><path fill="#000000" d="M 354.027344 210.214844 C 352.21875 208.390625 350.296875 206.699219 348.257812 205.136719 C 346.21875 203.578125 344.082031 202.164062 341.847656 200.894531 C 339.617188 199.628906 337.304688 198.519531 334.921875 197.570312 C 332.535156 196.621094 330.09375 195.835938 327.601562 195.222656 C 325.109375 194.609375 322.585938 194.167969 320.03125 193.898438 C 317.476562 193.632812 314.917969 193.539062 312.351562 193.621094 C 309.785156 193.707031 307.234375 193.964844 304.703125 194.398438 C 302.171875 194.832031 299.683594 195.4375 297.234375 196.214844 L 292.667969 191.707031 L 294.953125 189.421875 C 295.367188 189.003906 295.765625 188.570312 296.136719 188.113281 C 296.511719 187.65625 296.863281 187.183594 297.191406 186.691406 C 297.519531 186.203125 297.820312 185.695312 298.097656 185.175781 C 298.378906 184.65625 298.628906 184.121094 298.855469 183.578125 C 299.078125 183.03125 299.277344 182.476562 299.449219 181.914062 C 299.621094 181.347656 299.761719 180.777344 299.878906 180.195312 C 299.992188 179.617188 300.082031 179.035156 300.136719 178.449219 C 300.195312 177.859375 300.222656 177.273438 300.222656 176.683594 C 300.222656 176.09375 300.195312 175.503906 300.136719 174.917969 C 300.082031 174.328125 299.992188 173.746094 299.878906 173.167969 C 299.761719 172.589844 299.621094 172.019531 299.449219 171.453125 C 299.277344 170.886719 299.078125 170.332031 298.855469 169.789062 C 298.628906 169.242188 298.378906 168.710938 298.097656 168.191406 C 297.820312 167.667969 297.519531 167.164062 297.191406 166.671875 C 296.863281 166.183594 296.511719 165.710938 296.136719 165.253906 C 295.765625 164.796875 295.367188 164.359375 294.953125 163.941406 L 281.671875 150.660156 C 281.984375 149.335938 282.144531 147.996094 282.152344 146.632812 C 282.148438 144.246094 281.691406 141.945312 280.773438 139.738281 C 279.859375 137.53125 278.554688 135.582031 276.863281 133.894531 L 263.582031 120.613281 C 263.894531 119.289062 264.054688 117.945312 264.0625 116.585938 C 264.058594 114.195312 263.601562 111.898438 262.683594 109.691406 C 261.769531 107.484375 260.464844 105.535156 258.773438 103.847656 L 251.742188 96.816406 C 250.660156 95.734375 249.457031 94.804688 248.140625 94.027344 C 246.820312 93.25 245.421875 92.652344 243.953125 92.234375 C 242.480469 91.8125 240.980469 91.582031 239.449219 91.542969 C 237.917969 91.507812 236.40625 91.660156 234.914062 92.007812 L 221.574219 78.785156 C 221.15625 78.367188 220.71875 77.96875 220.261719 77.59375 C 219.804688 77.21875 219.332031 76.863281 218.839844 76.535156 C 218.347656 76.207031 217.839844 75.902344 217.320312 75.621094 C 216.796875 75.34375 216.265625 75.089844 215.71875 74.863281 C 215.171875 74.636719 214.613281 74.433594 214.050781 74.261719 C 213.484375 74.089844 212.910156 73.945312 212.328125 73.832031 C 211.75 73.714844 211.164062 73.628906 210.574219 73.570312 C 209.984375 73.511719 209.394531 73.484375 208.804688 73.484375 C 208.210938 73.484375 207.621094 73.511719 207.03125 73.570312 C 206.445312 73.628906 205.859375 73.714844 205.277344 73.832031 C 204.699219 73.945312 204.125 74.089844 203.558594 74.261719 C 202.992188 74.433594 202.4375 74.636719 201.890625 74.863281 C 201.34375 75.089844 200.808594 75.34375 200.289062 75.621094 C 199.765625 75.902344 199.261719 76.207031 198.769531 76.535156 C 198.277344 76.863281 197.800781 77.21875 197.34375 77.59375 C 196.890625 77.96875 196.453125 78.367188 196.035156 78.785156 L 187.742188 87.019531 L 177.945312 77.285156 C 178.710938 74.753906 179.296875 72.183594 179.707031 69.574219 C 180.113281 66.964844 180.335938 64.339844 180.375 61.695312 C 180.417969 59.054688 180.273438 56.421875 179.945312 53.800781 C 179.621094 51.179688 179.109375 48.59375 178.421875 46.042969 C 177.734375 43.492188 176.871094 41 175.835938 38.570312 C 174.796875 36.140625 173.597656 33.792969 172.234375 31.53125 C 170.867188 29.269531 169.351562 27.113281 167.6875 25.0625 C 166.019531 23.011719 164.222656 21.085938 162.285156 19.285156 C 160.351562 17.484375 158.300781 15.832031 156.132812 14.316406 C 153.96875 12.804688 151.707031 11.449219 149.351562 10.253906 C 146.996094 9.054688 144.570312 8.027344 142.070312 7.171875 C 139.570312 6.3125 137.023438 5.632812 134.429688 5.132812 C 131.835938 4.628906 129.21875 4.308594 126.582031 4.171875 C 123.941406 4.039062 121.308594 4.085938 118.675781 4.316406 C 116.042969 4.546875 113.441406 4.960938 110.867188 5.558594 C 108.292969 6.152344 105.773438 6.925781 103.304688 7.871094 C 102.363281 8.246094 101.566406 8.824219 100.917969 9.601562 C 100.265625 10.378906 99.839844 11.265625 99.640625 12.257812 C 99.441406 13.253906 99.488281 14.238281 99.789062 15.207031 C 100.085938 16.175781 100.597656 17.015625 101.320312 17.726562 L 129.6875 45.972656 C 130.910156 47.191406 131.851562 48.597656 132.519531 50.191406 C 133.183594 51.78125 133.523438 53.441406 133.535156 55.167969 C 133.582031 56.703125 133.335938 58.1875 132.792969 59.625 C 132.253906 61.0625 131.457031 62.339844 130.410156 63.460938 C 129.808594 64.054688 129.15625 64.578125 128.453125 65.039062 C 127.746094 65.5 127 65.882812 126.21875 66.195312 C 125.433594 66.503906 124.628906 66.730469 123.800781 66.878906 C 122.96875 67.023438 122.132812 67.085938 121.292969 67.0625 C 120.449219 67.039062 119.617188 66.933594 118.796875 66.742188 C 117.976562 66.554688 117.183594 66.28125 116.417969 65.933594 C 115.652344 65.582031 114.929688 65.15625 114.25 64.660156 C 113.570312 64.164062 112.945312 63.605469 112.378906 62.980469 L 84.195312 34.675781 C 84.019531 34.503906 83.835938 34.339844 83.640625 34.1875 C 83.445312 34.039062 83.242188 33.898438 83.03125 33.773438 C 82.820312 33.648438 82.601562 33.535156 82.375 33.4375 C 82.152344 33.335938 81.921875 33.253906 81.683594 33.183594 C 81.449219 33.113281 81.210938 33.054688 80.964844 33.015625 C 80.722656 32.972656 80.480469 32.945312 80.234375 32.933594 C 79.988281 32.925781 79.742188 32.929688 79.496094 32.945312 C 79.25 32.964844 79.007812 33 78.765625 33.046875 C 78.527344 33.097656 78.289062 33.160156 78.054688 33.238281 C 77.820312 33.316406 77.59375 33.410156 77.371094 33.515625 C 77.148438 33.621094 76.933594 33.742188 76.726562 33.871094 C 76.519531 34.003906 76.320312 34.148438 76.128906 34.304688 C 75.941406 34.464844 75.761719 34.632812 75.59375 34.808594 C 75.421875 34.988281 75.265625 35.175781 75.121094 35.375 C 74.972656 35.574219 74.839844 35.78125 74.71875 35.996094 C 74.597656 36.210938 74.492188 36.429688 74.398438 36.660156 C 73.847656 38.070312 73.351562 39.503906 72.914062 40.960938 C 72.476562 42.414062 72.097656 43.882812 71.78125 45.367188 C 71.460938 46.847656 71.203125 48.34375 71.007812 49.847656 C 70.808594 51.355469 70.671875 52.863281 70.597656 54.378906 C 70.519531 55.894531 70.507812 57.414062 70.554688 58.929688 C 70.601562 60.445312 70.710938 61.960938 70.878906 63.46875 C 71.046875 64.976562 71.277344 66.476562 71.570312 67.964844 C 71.859375 69.453125 72.210938 70.929688 72.621094 72.390625 C 73.03125 73.851562 73.5 75.296875 74.027344 76.71875 C 74.550781 78.140625 75.136719 79.542969 75.777344 80.917969 C 76.414062 82.292969 77.109375 83.644531 77.859375 84.964844 C 78.609375 86.285156 79.410156 87.570312 80.261719 88.828125 C 81.113281 90.082031 82.015625 91.300781 82.96875 92.484375 C 83.921875 93.664062 84.917969 94.808594 85.960938 95.910156 C 87.007812 97.011719 88.09375 98.070312 89.222656 99.082031 C 90.351562 100.097656 91.519531 101.0625 92.726562 101.984375 C 94.507812 103.375 96.367188 104.65625 98.300781 105.824219 C 100.238281 106.992188 102.238281 108.039062 104.300781 108.96875 C 106.363281 109.894531 108.472656 110.691406 110.632812 111.359375 C 112.792969 112.03125 114.984375 112.566406 117.207031 112.972656 C 119.433594 113.375 121.675781 113.644531 123.929688 113.777344 C 126.1875 113.910156 128.445312 113.90625 130.703125 113.765625 C 132.957031 113.625 135.199219 113.347656 137.421875 112.933594 C 139.644531 112.519531 141.832031 111.976562 143.992188 111.296875 L 144.710938 112.019531 L 120.3125 136.117188 C 119.75 136.683594 119.316406 137.339844 119.015625 138.078125 C 118.714844 138.816406 118.566406 139.585938 118.570312 140.382812 L 118.570312 192.128906 L 103.304688 208.472656 L 98.617188 203.726562 C 98.339844 203.445312 98.035156 203.191406 97.703125 202.972656 C 97.375 202.75 97.027344 202.5625 96.660156 202.410156 C 96.296875 202.257812 95.917969 202.144531 95.53125 202.066406 C 95.140625 201.988281 94.746094 201.949219 94.351562 201.949219 C 93.953125 201.949219 93.5625 201.988281 93.171875 202.066406 C 92.785156 202.144531 92.40625 202.257812 92.039062 202.410156 C 91.671875 202.5625 91.324219 202.75 90.996094 202.972656 C 90.667969 203.191406 90.363281 203.445312 90.085938 203.726562 L 60.035156 233.773438 C 59.753906 234.054688 59.503906 234.359375 59.28125 234.6875 C 59.058594 235.015625 58.875 235.363281 58.71875 235.730469 C 58.566406 236.097656 58.453125 236.472656 58.375 236.863281 C 58.296875 237.25 58.257812 237.644531 58.257812 238.039062 C 58.257812 238.4375 58.296875 238.832031 58.375 239.21875 C 58.453125 239.609375 58.566406 239.984375 58.71875 240.351562 C 58.875 240.71875 59.058594 241.066406 59.28125 241.394531 C 59.503906 241.722656 59.753906 242.027344 60.035156 242.308594 L 61.839844 244.050781 L -0.0585938 306.128906 L 8.472656 314.664062 L 70.3125 252.765625 L 127.945312 310.398438 L 72.054688 366.226562 L 80.589844 374.757812 L 136.417969 318.871094 L 138.160156 320.671875 C 138.441406 320.953125 138.746094 321.207031 139.074219 321.425781 C 139.402344 321.648438 139.75 321.835938 140.117188 321.988281 C 140.484375 322.140625 140.859375 322.257812 141.25 322.335938 C 141.636719 322.410156 142.03125 322.449219 142.429688 322.449219 C 142.824219 322.449219 143.21875 322.410156 143.605469 322.335938 C 143.996094 322.257812 144.371094 322.140625 144.738281 321.988281 C 145.105469 321.835938 145.453125 321.648438 145.78125 321.425781 C 146.109375 321.207031 146.414062 320.953125 146.695312 320.671875 L 176.742188 290.625 C 177.023438 290.34375 177.277344 290.042969 177.496094 289.710938 C 177.71875 289.382812 177.90625 289.035156 178.058594 288.667969 C 178.210938 288.304688 178.324219 287.925781 178.402344 287.535156 C 178.480469 287.148438 178.519531 286.753906 178.519531 286.359375 C 178.519531 285.960938 178.480469 285.570312 178.402344 285.179688 C 178.324219 284.789062 178.210938 284.414062 178.058594 284.046875 C 177.90625 283.679688 177.71875 283.332031 177.496094 283.003906 C 177.277344 282.675781 177.023438 282.371094 176.742188 282.089844 L 173.4375 278.847656 L 187.441406 263.820312 L 217.96875 263.820312 C 218.765625 263.828125 219.535156 263.679688 220.277344 263.375 C 221.015625 263.074219 221.667969 262.640625 222.234375 262.078125 L 258.714844 225.660156 L 263.160156 230.046875 C 262.480469 232.203125 261.929688 234.390625 261.515625 236.609375 C 261.097656 238.832031 260.820312 241.066406 260.675781 243.324219 C 260.535156 245.578125 260.527344 247.832031 260.660156 250.085938 C 260.792969 252.34375 261.058594 254.582031 261.464844 256.804688 C 261.867188 259.027344 262.40625 261.21875 263.078125 263.375 C 263.75 265.53125 264.546875 267.640625 265.476562 269.699219 C 266.402344 271.761719 267.453125 273.757812 268.625 275.6875 C 269.796875 277.621094 271.078125 279.472656 272.476562 281.25 C 273.8125 282.960938 275.238281 284.589844 276.761719 286.140625 C 278.28125 287.6875 279.882812 289.148438 281.566406 290.515625 C 283.25 291.882812 285.007812 293.152344 286.835938 294.324219 C 288.664062 295.492188 290.550781 296.558594 292.5 297.515625 C 294.445312 298.472656 296.441406 299.316406 298.484375 300.046875 C 300.527344 300.777344 302.605469 301.394531 304.71875 301.890625 C 306.832031 302.386719 308.964844 302.765625 311.121094 303.023438 C 313.273438 303.277344 315.4375 303.414062 317.609375 303.425781 C 324.640625 303.445312 331.410156 302.125 337.921875 299.460938 C 338.863281 299.082031 339.660156 298.507812 340.308594 297.730469 C 340.957031 296.953125 341.382812 296.066406 341.585938 295.070312 C 341.773438 294.085938 341.71875 293.113281 341.421875 292.15625 C 341.125 291.199219 340.617188 290.367188 339.902344 289.664062 L 311.539062 261.359375 C 310.3125 260.140625 309.367188 258.734375 308.703125 257.144531 C 308.035156 255.550781 307.699219 253.890625 307.691406 252.164062 C 307.699219 250.617188 307.992188 249.125 308.574219 247.691406 C 309.15625 246.257812 309.984375 244.984375 311.058594 243.871094 C 311.652344 243.304688 312.296875 242.800781 312.988281 242.363281 C 313.679688 241.921875 314.410156 241.554688 315.175781 241.257812 C 315.941406 240.964844 316.726562 240.746094 317.535156 240.605469 C 318.34375 240.464844 319.160156 240.402344 319.980469 240.421875 C 320.800781 240.441406 321.609375 240.542969 322.410156 240.71875 C 323.210938 240.898438 323.988281 241.15625 324.738281 241.488281 C 325.488281 241.820312 326.199219 242.222656 326.871094 242.691406 C 327.539062 243.164062 328.160156 243.695312 328.726562 244.289062 L 357.152344 272.597656 C 357.863281 273.300781 358.695312 273.796875 359.652344 274.082031 C 360.609375 274.371094 361.578125 274.414062 362.558594 274.21875 C 363.546875 274.023438 364.429688 273.605469 365.207031 272.964844 C 365.984375 272.328125 366.5625 271.542969 366.945312 270.613281 C 367.953125 268.070312 368.765625 265.472656 369.390625 262.808594 C 370.011719 260.148438 370.4375 257.457031 370.664062 254.734375 C 370.890625 252.011719 370.917969 249.285156 370.742188 246.558594 C 370.566406 243.832031 370.195312 241.132812 369.621094 238.460938 C 369.050781 235.789062 368.285156 233.171875 367.332031 230.613281 C 366.375 228.050781 365.234375 225.578125 363.914062 223.183594 C 362.59375 220.792969 361.105469 218.507812 359.449219 216.335938 C 357.789062 214.164062 355.984375 212.125 354.027344 210.214844 Z M 288.339844 176.683594 C 288.347656 177.480469 288.195312 178.25 287.894531 178.988281 C 287.59375 179.730469 287.160156 180.382812 286.597656 180.949219 L 261.960938 205.46875 L 261.417969 206.007812 C 261.140625 206.292969 260.835938 206.542969 260.503906 206.765625 C 260.175781 206.984375 259.828125 207.171875 259.460938 207.324219 C 259.097656 207.476562 258.71875 207.59375 258.328125 207.671875 C 257.941406 207.75 257.546875 207.789062 257.152344 207.789062 C 256.753906 207.789062 256.363281 207.75 255.972656 207.671875 C 255.585938 207.59375 255.207031 207.476562 254.839844 207.324219 C 254.472656 207.171875 254.125 206.984375 253.796875 206.765625 C 253.46875 206.542969 253.164062 206.292969 252.882812 206.007812 L 245.792969 198.976562 C 245.511719 198.699219 245.261719 198.394531 245.039062 198.066406 C 244.816406 197.738281 244.628906 197.390625 244.476562 197.023438 C 244.324219 196.65625 244.210938 196.277344 244.132812 195.890625 C 244.054688 195.5 244.015625 195.109375 244.015625 194.710938 C 244.015625 194.316406 244.054688 193.921875 244.132812 193.53125 C 244.210938 193.144531 244.324219 192.765625 244.476562 192.398438 C 244.628906 192.035156 244.816406 191.6875 245.039062 191.355469 C 245.261719 191.027344 245.511719 190.722656 245.792969 190.445312 L 249.339844 186.960938 L 275.242188 161.117188 L 286.660156 172.175781 C 287.242188 172.777344 287.679688 173.46875 287.96875 174.253906 C 288.261719 175.039062 288.386719 175.847656 288.339844 176.683594 Z M 270.3125 146.632812 C 270.316406 147.433594 270.167969 148.203125 269.867188 148.941406 C 269.5625 149.679688 269.132812 150.335938 268.570312 150.902344 L 240.867188 178.183594 L 237.320312 181.730469 C 237.039062 182.011719 236.734375 182.265625 236.40625 182.484375 C 236.078125 182.707031 235.730469 182.894531 235.363281 183.046875 C 234.996094 183.199219 234.621094 183.3125 234.230469 183.390625 C 233.84375 183.46875 233.449219 183.507812 233.054688 183.507812 C 232.65625 183.507812 232.261719 183.46875 231.875 183.390625 C 231.484375 183.3125 231.109375 183.199219 230.742188 183.046875 C 230.375 182.894531 230.027344 182.707031 229.699219 182.484375 C 229.371094 182.265625 229.066406 182.011719 228.785156 181.730469 L 228.304688 181.25 C 231.253906 179.847656 233.898438 178.003906 236.238281 175.722656 L 243.328125 168.691406 C 243.609375 168.410156 243.863281 168.105469 244.082031 167.777344 C 244.304688 167.449219 244.492188 167.101562 244.644531 166.734375 C 244.796875 166.367188 244.914062 165.992188 244.992188 165.601562 C 245.066406 165.210938 245.105469 164.820312 245.105469 164.421875 C 245.105469 164.027344 245.066406 163.632812 244.992188 163.246094 C 244.914062 162.855469 244.796875 162.476562 244.644531 162.113281 C 244.492188 161.746094 244.304688 161.398438 244.082031 161.070312 C 243.863281 160.738281 243.609375 160.4375 243.328125 160.15625 L 235.515625 152.402344 L 257.152344 130.828125 L 268.628906 142.128906 C 269.199219 142.734375 269.628906 143.429688 269.910156 144.210938 C 270.191406 144.996094 270.304688 145.804688 270.253906 146.632812 Z M 243.390625 105.289062 L 250.601562 112.078125 C 250.882812 112.359375 251.132812 112.664062 251.355469 112.992188 C 251.578125 113.320312 251.765625 113.667969 251.917969 114.035156 C 252.070312 114.402344 252.183594 114.777344 252.261719 115.167969 C 252.339844 115.558594 252.378906 115.949219 252.378906 116.347656 C 252.378906 116.742188 252.339844 117.136719 252.261719 117.523438 C 252.183594 117.914062 252.070312 118.292969 251.917969 118.65625 C 251.765625 119.023438 251.578125 119.371094 251.355469 119.699219 C 251.132812 120.03125 250.882812 120.332031 250.601562 120.613281 L 227.222656 143.929688 L 211.597656 128.367188 L 234.976562 105.046875 C 235.261719 104.789062 235.570312 104.558594 235.898438 104.355469 C 236.226562 104.15625 236.574219 103.988281 236.9375 103.851562 C 237.296875 103.71875 237.667969 103.617188 238.050781 103.554688 C 238.433594 103.492188 238.816406 103.46875 239.203125 103.480469 C 239.585938 103.488281 239.96875 103.539062 240.34375 103.621094 C 240.722656 103.707031 241.085938 103.828125 241.441406 103.980469 C 241.796875 104.136719 242.128906 104.324219 242.449219 104.542969 C 242.765625 104.765625 243.058594 105.011719 243.328125 105.289062 Z M 204.6875 87.257812 C 204.96875 86.972656 205.273438 86.71875 205.605469 86.492188 C 205.933594 86.265625 206.285156 86.078125 206.652344 85.921875 C 207.023438 85.765625 207.402344 85.648438 207.796875 85.570312 C 208.1875 85.492188 208.585938 85.453125 208.984375 85.453125 C 209.382812 85.453125 209.78125 85.492188 210.171875 85.570312 C 210.566406 85.648438 210.945312 85.765625 211.316406 85.921875 C 211.683594 86.078125 212.035156 86.265625 212.363281 86.492188 C 212.695312 86.71875 213 86.972656 213.28125 87.257812 L 224.578125 98.558594 L 202.945312 120.132812 L 189.421875 106.671875 C 188.703125 105.949219 187.859375 105.410156 187.078125 104.746094 Z M 143.390625 98.738281 C 141.621094 99.449219 139.816406 100.042969 137.96875 100.515625 C 136.125 100.992188 134.257812 101.34375 132.367188 101.578125 C 130.476562 101.808594 128.578125 101.917969 126.671875 101.902344 C 124.769531 101.886719 122.871094 101.746094 120.984375 101.484375 C 119.097656 101.222656 117.234375 100.839844 115.398438 100.332031 C 113.5625 99.828125 111.765625 99.207031 110.011719 98.46875 C 108.253906 97.726562 106.554688 96.878906 104.90625 95.917969 C 103.261719 94.957031 101.6875 93.894531 100.179688 92.726562 C 98.601562 91.519531 97.109375 90.214844 95.703125 88.808594 C 94.300781 87.402344 92.996094 85.910156 91.789062 84.332031 C 90.582031 82.75 89.484375 81.097656 88.5 79.375 C 87.511719 77.648438 86.644531 75.863281 85.894531 74.023438 C 85.144531 72.183594 84.519531 70.300781 84.023438 68.378906 C 83.523438 66.453125 83.152344 64.503906 82.914062 62.53125 C 82.671875 60.558594 82.566406 58.578125 82.589844 56.59375 C 82.613281 54.605469 82.765625 52.628906 83.054688 50.660156 L 104.148438 71.753906 C 104.707031 72.324219 105.292969 72.867188 105.90625 73.378906 C 106.519531 73.890625 107.15625 74.371094 107.816406 74.820312 C 108.476562 75.273438 109.15625 75.6875 109.859375 76.074219 C 110.558594 76.457031 111.277344 76.804688 112.011719 77.121094 C 112.746094 77.433594 113.496094 77.710938 114.257812 77.953125 C 115.019531 78.191406 115.789062 78.394531 116.570312 78.5625 C 117.355469 78.726562 118.140625 78.855469 118.9375 78.945312 C 119.730469 79.03125 120.527344 79.082031 121.324219 79.09375 C 122.125 79.105469 122.921875 79.078125 123.71875 79.011719 C 124.515625 78.941406 125.304688 78.839844 126.09375 78.695312 C 126.878906 78.550781 127.65625 78.367188 128.421875 78.148438 C 129.191406 77.929688 129.949219 77.671875 130.691406 77.378906 C 131.433594 77.085938 132.160156 76.757812 132.871094 76.394531 C 133.582031 76.027344 134.273438 75.632812 134.949219 75.199219 C 135.621094 74.765625 136.269531 74.304688 136.898438 73.808594 C 137.523438 73.3125 138.125 72.789062 138.703125 72.234375 C 139.804688 71.128906 140.789062 69.925781 141.652344 68.628906 C 142.515625 67.328125 143.246094 65.957031 143.835938 64.511719 C 144.429688 63.070312 144.875 61.582031 145.175781 60.046875 C 145.472656 58.515625 145.621094 56.96875 145.613281 55.410156 C 145.613281 53.765625 145.449219 52.136719 145.128906 50.523438 C 144.804688 48.914062 144.324219 47.347656 143.691406 45.832031 C 143.054688 44.316406 142.277344 42.878906 141.359375 41.515625 C 140.4375 40.152344 139.390625 38.894531 138.222656 37.742188 L 117.066406 16.40625 C 118.796875 16.148438 120.535156 15.992188 122.285156 15.9375 C 124.03125 15.878906 125.777344 15.929688 127.519531 16.078125 C 129.261719 16.230469 130.988281 16.480469 132.703125 16.835938 C 134.414062 17.1875 136.101562 17.640625 137.761719 18.191406 C 139.421875 18.742188 141.042969 19.390625 142.625 20.132812 C 144.210938 20.875 145.746094 21.707031 147.230469 22.628906 C 148.71875 23.550781 150.144531 24.558594 151.511719 25.648438 C 152.878906 26.738281 154.179688 27.902344 155.410156 29.148438 C 156.945312 30.644531 158.367188 32.242188 159.667969 33.949219 C 160.972656 35.652344 162.140625 37.445312 163.179688 39.324219 C 164.21875 41.199219 165.113281 43.144531 165.867188 45.15625 C 166.617188 47.164062 167.21875 49.21875 167.667969 51.316406 C 168.117188 53.414062 168.410156 55.535156 168.546875 57.675781 C 168.6875 59.816406 168.664062 61.957031 168.488281 64.09375 C 168.308594 66.234375 167.976562 68.347656 167.484375 70.4375 C 166.996094 72.527344 166.355469 74.566406 165.566406 76.5625 C 165.34375 77.109375 165.207031 77.675781 165.15625 78.261719 C 165.101562 78.847656 165.132812 79.429688 165.25 80.007812 C 165.367188 80.582031 165.566406 81.132812 165.84375 81.648438 C 166.125 82.167969 166.472656 82.636719 166.886719 83.054688 L 179.328125 95.554688 L 175.660156 99.21875 C 173.757812 98.792969 171.835938 98.570312 169.886719 98.558594 C 167.9375 98.542969 166.007812 98.738281 164.101562 99.136719 C 162.195312 99.535156 160.351562 100.132812 158.570312 100.925781 C 156.792969 101.71875 155.117188 102.691406 153.546875 103.847656 L 149.820312 100.058594 C 149.402344 99.644531 148.933594 99.296875 148.417969 99.019531 C 147.898438 98.738281 147.351562 98.542969 146.773438 98.425781 C 146.195312 98.304688 145.613281 98.273438 145.027344 98.328125 C 144.441406 98.382812 143.875 98.519531 143.328125 98.738281 Z M 142.429688 307.933594 L 72.777344 238.28125 L 94.351562 216.707031 L 164.003906 286.359375 Z M 215.503906 251.804688 L 184.796875 251.804688 C 183.960938 251.804688 183.164062 251.972656 182.402344 252.308594 C 181.640625 252.644531 180.976562 253.117188 180.410156 253.726562 L 164.964844 270.371094 L 111.839844 217.1875 L 128.964844 198.796875 C 129.484375 198.242188 129.882812 197.613281 130.164062 196.910156 C 130.445312 196.203125 130.585938 195.46875 130.589844 194.710938 L 130.589844 143.148438 L 158.59375 115.203125 C 159.339844 114.496094 160.148438 113.859375 161.015625 113.304688 C 161.882812 112.75 162.796875 112.28125 163.753906 111.898438 C 164.710938 111.515625 165.695312 111.226562 166.707031 111.03125 C 167.71875 110.835938 168.742188 110.738281 169.773438 110.738281 C 170.800781 110.738281 171.824219 110.835938 172.835938 111.03125 C 173.847656 111.226562 174.832031 111.515625 175.789062 111.898438 C 176.746094 112.28125 177.660156 112.75 178.527344 113.304688 C 179.394531 113.859375 180.203125 114.496094 180.949219 115.203125 L 230.527344 164.664062 L 227.765625 167.429688 C 227.347656 167.847656 226.910156 168.25 226.453125 168.628906 C 225.992188 169.003906 225.519531 169.359375 225.027344 169.691406 C 224.535156 170.023438 224.027344 170.328125 223.503906 170.609375 C 222.980469 170.890625 222.445312 171.144531 221.898438 171.375 C 221.347656 171.601562 220.792969 171.804688 220.222656 171.976562 C 219.65625 172.148438 219.082031 172.292969 218.5 172.410156 C 217.917969 172.527344 217.332031 172.613281 216.742188 172.671875 C 216.148438 172.730469 215.558594 172.761719 214.964844 172.761719 C 214.371094 172.761719 213.777344 172.730469 213.1875 172.671875 C 212.597656 172.613281 212.011719 172.527344 211.429688 172.410156 C 210.847656 172.292969 210.273438 172.148438 209.703125 171.976562 C 209.136719 171.804688 208.578125 171.601562 208.03125 171.375 C 207.484375 171.144531 206.945312 170.890625 206.425781 170.609375 C 205.902344 170.328125 205.394531 170.023438 204.902344 169.691406 C 204.410156 169.359375 203.933594 169.003906 203.476562 168.628906 C 203.019531 168.25 202.582031 167.847656 202.164062 167.429688 L 177.042969 142.128906 C 176.761719 141.847656 176.457031 141.597656 176.128906 141.378906 C 175.800781 141.160156 175.453125 140.972656 175.085938 140.820312 C 174.71875 140.671875 174.34375 140.554688 173.953125 140.480469 C 173.566406 140.402344 173.171875 140.363281 172.777344 140.363281 C 172.382812 140.363281 171.988281 140.402344 171.601562 140.480469 C 171.210938 140.558594 170.835938 140.671875 170.46875 140.824219 C 170.105469 140.976562 169.757812 141.160156 169.425781 141.378906 C 169.097656 141.601562 168.792969 141.851562 168.511719 142.128906 C 168.234375 142.410156 167.984375 142.714844 167.761719 143.042969 C 167.542969 143.375 167.355469 143.722656 167.207031 144.085938 C 167.054688 144.453125 166.9375 144.832031 166.863281 145.21875 C 166.785156 145.605469 166.746094 146 166.746094 146.394531 C 166.746094 146.792969 166.785156 147.183594 166.859375 147.570312 C 166.9375 147.960938 167.050781 148.335938 167.203125 148.703125 C 167.355469 149.070312 167.539062 149.417969 167.761719 149.746094 C 167.980469 150.074219 168.230469 150.378906 168.507812 150.660156 C 169.554688 151.699219 170.546875 152.789062 171.484375 153.925781 C 172.421875 155.0625 173.300781 156.242188 174.121094 157.464844 C 174.945312 158.6875 175.703125 159.949219 176.398438 161.25 C 177.097656 162.546875 177.726562 163.875 178.292969 165.238281 C 178.859375 166.597656 179.355469 167.984375 179.785156 169.390625 C 180.214844 170.800781 180.574219 172.230469 180.863281 173.675781 C 181.152344 175.121094 181.367188 176.574219 181.511719 178.042969 C 181.660156 179.507812 181.730469 180.976562 181.730469 182.453125 C 181.730469 183.925781 181.660156 185.394531 181.511719 186.863281 C 181.367188 188.328125 181.152344 189.785156 180.863281 191.230469 C 180.574219 192.675781 180.214844 194.101562 179.785156 195.511719 C 179.355469 196.921875 178.859375 198.304688 178.292969 199.667969 C 177.726562 201.027344 177.097656 202.355469 176.398438 203.65625 C 175.703125 204.953125 174.945312 206.214844 174.121094 207.4375 C 173.300781 208.660156 172.421875 209.84375 171.484375 210.980469 C 170.546875 212.117188 169.554688 213.203125 168.507812 214.242188 L 177.042969 222.777344 C 179.699219 220.132812 182.066406 217.257812 184.152344 214.144531 C 186.238281 211.03125 187.996094 207.746094 189.429688 204.285156 C 190.863281 200.824219 191.945312 197.257812 192.671875 193.582031 C 193.398438 189.90625 193.757812 186.199219 193.75 182.453125 C 193.761719 180.078125 193.621094 177.714844 193.328125 175.359375 L 193.691406 175.722656 C 195.054688 177.105469 196.542969 178.347656 198.148438 179.445312 C 199.753906 180.542969 201.449219 181.476562 203.238281 182.242188 C 205.027344 183.011719 206.871094 183.597656 208.773438 184.007812 C 210.675781 184.417969 212.597656 184.640625 214.542969 184.675781 L 220.554688 190.683594 C 222.15625 192.28125 223.996094 193.527344 226.070312 194.429688 C 228.144531 195.332031 230.3125 195.828125 232.570312 195.914062 C 232.660156 198.171875 233.152344 200.339844 234.054688 202.414062 C 234.957031 204.488281 236.207031 206.328125 237.800781 207.933594 L 244.589844 214.242188 C 246.039062 215.714844 247.699219 216.875 249.578125 217.726562 Z M 358.292969 256.972656 L 337.140625 235.878906 C 336.578125 235.304688 335.992188 234.761719 335.382812 234.25 C 334.769531 233.734375 334.132812 233.253906 333.472656 232.800781 C 332.8125 232.347656 332.132812 231.929688 331.433594 231.546875 C 330.730469 231.160156 330.015625 230.808594 329.277344 230.496094 C 328.542969 230.179688 327.796875 229.902344 327.035156 229.660156 C 326.269531 229.417969 325.5 229.214844 324.71875 229.046875 C 323.933594 228.882812 323.148438 228.753906 322.351562 228.664062 C 321.558594 228.574219 320.761719 228.527344 319.960938 228.515625 C 319.160156 228.503906 318.363281 228.53125 317.566406 228.597656 C 316.769531 228.664062 315.976562 228.769531 315.191406 228.914062 C 314.40625 229.058594 313.628906 229.242188 312.859375 229.460938 C 312.089844 229.683594 311.335938 229.941406 310.589844 230.234375 C 309.847656 230.527344 309.121094 230.859375 308.410156 231.226562 C 307.699219 231.589844 307.007812 231.988281 306.335938 232.421875 C 305.664062 232.855469 305.011719 233.320312 304.386719 233.816406 C 303.761719 234.316406 303.160156 234.839844 302.585938 235.398438 C 301.476562 236.492188 300.492188 237.6875 299.621094 238.980469 C 298.753906 240.273438 298.023438 241.640625 297.433594 243.082031 C 296.839844 244.519531 296.394531 246.003906 296.097656 247.535156 C 295.800781 249.0625 295.660156 250.605469 295.671875 252.164062 C 295.667969 253.8125 295.828125 255.445312 296.148438 257.0625 C 296.472656 258.679688 296.949219 260.25 297.585938 261.773438 C 298.21875 263.292969 298.996094 264.738281 299.921875 266.105469 C 300.84375 267.472656 301.890625 268.734375 303.066406 269.890625 L 324.160156 290.925781 C 322.191406 291.199219 320.214844 291.347656 318.230469 291.359375 C 316.246094 291.375 314.269531 291.261719 312.296875 291.015625 C 310.328125 290.769531 308.382812 290.398438 306.460938 289.898438 C 304.539062 289.394531 302.660156 288.769531 300.820312 288.023438 C 298.980469 287.273438 297.199219 286.40625 295.476562 285.425781 C 293.75 284.441406 292.097656 283.347656 290.515625 282.148438 C 288.933594 280.945312 287.4375 279.648438 286.027344 278.25 C 284.617188 276.851562 283.304688 275.367188 282.089844 273.796875 C 280.925781 272.300781 279.863281 270.734375 278.902344 269.097656 C 277.941406 267.460938 277.089844 265.765625 276.351562 264.019531 C 275.609375 262.269531 274.988281 260.480469 274.484375 258.652344 C 273.976562 256.820312 273.59375 254.96875 273.332031 253.085938 C 273.070312 251.207031 272.929688 249.320312 272.914062 247.421875 C 272.898438 245.523438 273.007812 243.632812 273.238281 241.746094 C 273.472656 239.863281 273.824219 238.003906 274.300781 236.164062 C 274.777344 234.328125 275.371094 232.527344 276.082031 230.769531 C 276.292969 230.21875 276.421875 229.648438 276.464844 229.058594 C 276.511719 228.46875 276.46875 227.882812 276.339844 227.304688 C 276.210938 226.730469 276.003906 226.183594 275.714844 225.667969 C 275.421875 225.152344 275.066406 224.6875 274.640625 224.277344 L 267.546875 217.1875 L 270.191406 214.542969 L 284.617188 200.242188 L 291.707031 207.332031 C 292.125 207.753906 292.597656 208.105469 293.121094 208.386719 C 293.644531 208.667969 294.199219 208.871094 294.78125 208.988281 C 295.363281 209.105469 295.953125 209.136719 296.542969 209.078125 C 297.136719 209.023438 297.707031 208.878906 298.257812 208.652344 C 299.160156 208.320312 300.074219 208.011719 300.996094 207.738281 C 301.917969 207.460938 302.851562 207.214844 303.789062 207 C 304.726562 206.78125 305.671875 206.597656 306.625 206.441406 C 307.574219 206.285156 308.53125 206.160156 309.488281 206.066406 C 310.449219 205.972656 311.40625 205.910156 312.371094 205.878906 C 313.332031 205.847656 314.296875 205.847656 315.261719 205.875 C 316.222656 205.90625 317.183594 205.96875 318.144531 206.058594 C 319.101562 206.152344 320.058594 206.273438 321.007812 206.425781 C 321.960938 206.578125 322.90625 206.765625 323.84375 206.976562 C 324.78125 207.191406 325.714844 207.4375 326.636719 207.710938 C 327.5625 207.984375 328.476562 208.289062 329.378906 208.621094 C 330.285156 208.953125 331.175781 209.316406 332.054688 209.707031 C 332.9375 210.097656 333.804688 210.515625 334.660156 210.960938 C 335.511719 211.40625 336.351562 211.882812 337.175781 212.382812 C 337.996094 212.882812 338.804688 213.410156 339.59375 213.960938 C 340.382812 214.511719 341.152344 215.089844 341.90625 215.691406 C 342.660156 216.292969 343.390625 216.917969 344.101562 217.566406 C 344.816406 218.214844 345.503906 218.886719 346.171875 219.582031 C 346.84375 220.273438 347.488281 220.988281 348.109375 221.722656 C 348.734375 222.460938 349.332031 223.214844 349.90625 223.988281 C 350.480469 224.761719 351.03125 225.550781 351.554688 226.359375 C 352.078125 227.167969 352.574219 227.996094 353.042969 228.835938 C 353.515625 229.675781 353.957031 230.53125 354.371094 231.402344 C 354.785156 232.269531 355.171875 233.152344 355.53125 234.046875 C 355.890625 234.941406 356.21875 235.84375 356.519531 236.761719 C 356.820312 237.675781 357.089844 238.601562 357.332031 239.53125 C 357.570312 240.464844 357.78125 241.40625 357.960938 242.351562 C 358.140625 243.296875 358.292969 244.25 358.410156 245.207031 C 358.53125 246.160156 358.617188 247.121094 358.675781 248.082031 C 358.730469 249.042969 358.757812 250.007812 358.753906 250.96875 C 358.75 251.933594 358.714844 252.894531 358.644531 253.855469 C 358.578125 254.816406 358.480469 255.777344 358.351562 256.730469 Z M 358.292969 256.972656 " fill-opacity="1" fill-rule="nonzero"/></svg>