<svg xmlns="http://www.w3.org/2000/svg" xmlns:xlink="http://www.w3.org/1999/xlink" width="500" zoomAndPan="magnify" viewBox="0 0 375 374.999991" height="500" preserveAspectRatio="xMidYMid meet" version="1.0"><path fill="#000000" d="M 97.824219 14.058594 C 83.960938 15.730469 66.851562 21.4375 54.664062 28.617188 C 28.699219 43.957031 10.707031 68.054688 2.546875 98.445312 C 0.386719 106.707031 0.09375 109.851562 0.09375 124.113281 C -0.0078125 135.816406 0.484375 142.308594 1.664062 147.421875 C 6.96875 170.632812 16.3125 187.449219 32.734375 203.777344 C 42.859375 213.808594 50.628906 219.414062 62.132812 225.121094 L 69.410156 228.566406 L 68.820312 234.171875 C 68.527344 237.222656 66.855469 257.183594 65.183594 278.527344 C 61.738281 321.996094 61.839844 325.144531 67.148438 336.0625 C 72.949219 347.863281 86.8125 357.992188 100.285156 360.160156 C 118.871094 363.304688 138.535156 353.175781 146.890625 336.257812 C 152.59375 324.554688 152.59375 323.765625 148.5625 274.886719 C 146.496094 250.695312 145.21875 230.632812 145.613281 230.238281 C 146.105469 229.84375 159.964844 225.125 176.484375 219.714844 C 223.875 204.167969 254.058594 197.382812 286.410156 194.828125 C 309.714844 193.054688 312.664062 193.550781 342.058594 202.695312 C 367.917969 210.761719 371.753906 211.546875 373.816406 209.480469 C 374.703125 208.597656 374.996094 188.535156 374.996094 125.097656 C 374.996094 45.628906 374.898438 41.695312 373.226562 40.21875 C 372.242188 39.234375 370.964844 38.546875 370.375 38.546875 C 369.882812 38.546875 357.296875 42.285156 342.449219 46.910156 L 315.507812 55.269531 L 301.25 55.269531 C 265.460938 55.269531 233.210938 48.582031 169.496094 27.832031 C 123.878906 13.074219 117.390625 11.796875 97.824219 14.058594 Z M 126.4375 25.761719 C 131.847656 26.941406 148.953125 31.957031 164.488281 37.074219 C 198.902344 48.285156 208.933594 51.335938 224.074219 55.171875 C 238.234375 58.710938 259.667969 62.742188 269.597656 63.726562 L 276.675781 64.414062 L 276.675781 110.835938 C 276.675781 155.683594 276.773438 157.257812 278.640625 159.023438 C 281.195312 161.285156 285.328125 160.304688 286.507812 156.957031 C 287.097656 155.484375 287.488281 136.109375 287.488281 109.652344 L 287.488281 64.902344 L 289.75 65.492188 C 290.929688 65.785156 296.042969 66.082031 301.058594 66.082031 L 310.109375 66.082031 L 310.109375 183.8125 L 293.195312 184.398438 C 256.914062 185.679688 227.414062 192.074219 170.976562 210.660156 C 127.027344 225.121094 116.40625 227.382812 100.480469 225.414062 C 83.566406 223.449219 67.835938 217.742188 54.363281 208.695312 C 45.019531 202.402344 30.273438 186.960938 24.574219 177.421875 C 18.773438 167.683594 13.953125 155.09375 11.691406 143.882812 C 9.332031 132.476562 10.117188 110.246094 13.164062 99.03125 C 26.832031 48.679688 77.667969 15.832031 126.4375 25.761719 Z M 364.378906 107.097656 C 364.480469 137.882812 364.574219 170.832031 364.675781 180.46875 C 364.675781 190.109375 364.480469 198.171875 364.183594 198.273438 C 363.890625 198.46875 354.152344 195.617188 342.554688 191.976562 L 321.414062 185.488281 L 321.117188 125 L 320.921875 64.414062 L 341.769531 57.925781 C 353.273438 54.386719 363.007812 51.433594 363.5 51.433594 C 363.890625 51.335938 364.285156 76.414062 364.378906 107.097656 Z M 92.808594 234.757812 C 102.640625 236.625 116.304688 236.625 126.238281 234.65625 C 130.664062 233.867188 134.398438 233.28125 134.597656 233.476562 C 134.695312 233.671875 136.367188 252.554688 138.335938 275.570312 C 142.074219 320.121094 141.972656 322.972656 137.941406 331.332031 C 134.992188 337.433594 128.007812 344.117188 121.519531 347.167969 C 116.703125 349.429688 114.636719 349.824219 107.066406 349.824219 C 99.398438 349.824219 97.429688 349.429688 92.613281 347.070312 C 85.4375 343.527344 77.867188 335.367188 75.210938 328.1875 C 72.554688 321.007812 72.554688 317.761719 76.09375 273.601562 C 77.667969 253.339844 79.042969 235.636719 79.042969 234.359375 C 79.042969 232.292969 79.339844 232.097656 82.289062 232.785156 C 83.960938 233.085938 88.777344 234.066406 92.808594 234.757812 Z M 92.808594 234.757812 " fill-opacity="1" fill-rule="nonzero"/><path fill="#000000" d="M 100.179688 74.050781 C 89.070312 75.132812 80.121094 79.164062 71.667969 86.9375 C 49.644531 107 48.757812 140.144531 69.703125 160.996094 C 94.773438 186.078125 136.167969 179.191406 151.800781 147.421875 C 162.910156 124.703125 156.617188 98.933594 136.363281 83.691406 C 126.140625 75.921875 113.949219 72.679688 100.179688 74.050781 Z M 117.589844 85.757812 C 154.363281 97.070312 157.015625 147.027344 121.714844 162.570312 C 102.246094 171.226562 78.355469 161.980469 68.917969 142.109375 C 65.96875 135.816406 65.773438 134.734375 65.773438 124.601562 C 65.773438 114.375 65.96875 113.390625 68.917969 107.292969 C 74.027344 96.871094 85.632812 87.429688 96.445312 84.871094 C 102.835938 83.398438 111 83.691406 117.589844 85.757812 Z M 117.589844 85.757812 " fill-opacity="1" fill-rule="nonzero"/></svg>