<svg xmlns="http://www.w3.org/2000/svg" xmlns:xlink="http://www.w3.org/1999/xlink" width="500" zoomAndPan="magnify" viewBox="0 0 375 374.999991" height="500" preserveAspectRatio="xMidYMid meet" version="1.0"><defs><clipPath id="id1"><path d="M 17 0 L 358.921875 0 L 358.921875 375 L 17 375 Z M 17 0 " clip-rule="nonzero"/></clipPath></defs><g clip-path="url(#id1)"><path fill="#000000" d="M 247.195312 0.246094 L 244.949219 8.378906 L 206.085938 148.21875 L 187.320312 148.21875 C 183.332031 120.820312 159.722656 99.621094 131.242188 99.621094 C 102.757812 99.621094 79.152344 120.820312 75.164062 148.21875 L 25.921875 148.21875 C 23.007812 148.1875 20.289062 149.707031 18.800781 152.234375 C 17.34375 154.765625 17.34375 157.867188 18.800781 160.398438 C 20.289062 162.929688 23.007812 164.449219 25.921875 164.417969 L 27.566406 164.417969 C 39.8125 214.878906 84.214844 251.296875 136.304688 253.289062 L 174.820312 283.597656 L 149.214844 303.71875 C 142.191406 297.675781 133.109375 294.007812 123.140625 294.007812 C 100.796875 294.007812 82.632812 312.167969 82.632812 334.503906 C 82.632812 356.839844 100.796875 375 123.140625 375 C 145.480469 375 163.648438 356.839844 163.648438 334.503906 C 163.648438 334.1875 163.550781 333.871094 163.550781 333.554688 L 139.628906 352.347656 C 139.53125 352.441406 139.375 352.441406 139.277344 352.535156 C 134.976562 356.398438 129.34375 358.800781 123.140625 358.800781 C 109.753906 358.800781 98.835938 347.886719 98.835938 334.503906 C 98.835938 321.121094 109.753906 310.207031 123.140625 310.207031 C 127.917969 310.207031 132.316406 311.660156 136.050781 314.035156 L 118.140625 328.144531 C 114.625 330.894531 113.992188 335.988281 116.746094 339.503906 C 119.53125 343.015625 124.625 343.648438 128.140625 340.863281 L 187.953125 293.878906 L 247.765625 340.863281 C 251.277344 343.648438 256.371094 343.015625 259.15625 339.503906 C 261.910156 335.988281 261.277344 330.894531 257.765625 328.144531 L 239.851562 314.035156 C 243.585938 311.660156 247.984375 310.207031 252.765625 310.207031 C 266.152344 310.207031 277.070312 321.121094 277.070312 334.503906 C 277.070312 347.886719 266.152344 358.800781 252.765625 358.800781 C 246.5625 358.800781 240.929688 356.398438 236.625 352.535156 C 236.53125 352.441406 236.371094 352.441406 236.277344 352.347656 L 212.351562 333.554688 C 212.351562 333.871094 212.257812 334.1875 212.257812 334.503906 C 212.257812 356.839844 230.421875 375 252.765625 375 C 275.105469 375 293.273438 356.839844 293.273438 334.503906 C 293.273438 312.167969 275.105469 294.007812 252.765625 294.007812 C 242.796875 294.007812 233.714844 297.675781 226.6875 303.71875 L 201.085938 283.597656 L 239.597656 253.289062 C 291.691406 251.296875 336.089844 214.878906 348.335938 164.417969 L 349.984375 164.417969 C 352.894531 164.449219 355.617188 162.929688 357.105469 160.398438 C 358.558594 157.867188 358.558594 154.765625 357.105469 152.234375 C 355.617188 149.707031 352.894531 148.1875 349.984375 148.21875 L 349.921875 148.21875 C 348.78125 92.503906 326.4375 55.960938 303.683594 33.878906 C 279.855469 10.75 255.234375 2.808594 255.234375 2.808594 Z M 131.242188 10.527344 C 108.960938 10.527344 90.734375 28.753906 90.734375 51.027344 C 90.734375 73.300781 108.960938 91.523438 131.242188 91.523438 C 153.519531 91.523438 171.75 73.300781 171.75 51.027344 C 171.75 28.753906 153.519531 10.527344 131.242188 10.527344 Z M 258.050781 21.730469 C 265.488281 24.988281 277.480469 31.03125 292.417969 45.519531 C 312.511719 65.042969 331.914062 97.152344 333.148438 148.21875 L 222.890625 148.21875 Z M 131.242188 26.726562 C 144.753906 26.726562 155.546875 37.515625 155.546875 51.027344 C 155.546875 64.535156 144.753906 75.324219 131.242188 75.324219 C 117.726562 75.324219 106.9375 64.535156 106.9375 51.027344 C 106.9375 37.515625 117.726562 26.726562 131.242188 26.726562 Z M 131.242188 115.820312 C 150.925781 115.820312 167.222656 129.679688 170.957031 148.21875 L 91.523438 148.21875 C 95.257812 129.679688 111.558594 115.820312 131.242188 115.820312 Z M 45.542969 164.417969 L 330.363281 164.417969 C 318.148438 206.433594 280.992188 236.582031 236.5625 237.246094 C 236.5 237.246094 236.464844 237.246094 236.402344 237.28125 C 235.960938 237.28125 235.546875 237.3125 235.105469 237.3125 L 140.796875 237.3125 C 140.511719 237.3125 140.261719 237.28125 139.976562 237.28125 C 139.816406 237.246094 139.628906 237.246094 139.46875 237.246094 C 94.972656 236.648438 57.757812 206.464844 45.542969 164.417969 Z M 162.761719 253.507812 L 213.144531 253.507812 L 187.953125 273.285156 Z M 162.761719 253.507812 " fill-opacity="1" fill-rule="nonzero"/></g></svg>