<svg xmlns="http://www.w3.org/2000/svg" xmlns:xlink="http://www.w3.org/1999/xlink" width="500" zoomAndPan="magnify" viewBox="0 0 375 374.999991" height="500" preserveAspectRatio="xMidYMid meet" version="1.0"><path fill="#100f0d" d="M 17.058594 365.300781 C 15.792969 365.300781 14.527344 364.820312 13.554688 363.863281 C 11.621094 361.929688 11.621094 358.804688 13.554688 356.871094 L 91.144531 279.285156 C 93.074219 277.351562 96.199219 277.351562 98.132812 279.285156 C 100.066406 281.21875 100.066406 284.34375 98.132812 286.273438 L 20.546875 363.863281 C 19.585938 364.820312 18.320312 365.300781 17.058594 365.300781 " fill-opacity="1" fill-rule="nonzero"/><path fill="#100f0d" d="M 39.132812 374.425781 C 29.394531 374.425781 20.3125 370.679688 13.570312 363.863281 C 6.738281 357.019531 2.960938 347.921875 2.976562 338.257812 C 2.992188 328.636719 6.753906 319.582031 13.597656 312.78125 L 138.792969 187.585938 C 140.726562 185.65625 143.851562 185.65625 145.785156 187.585938 C 147.714844 189.519531 147.714844 192.644531 145.785156 194.578125 L 20.574219 319.773438 C 15.605469 324.726562 12.871094 331.296875 12.859375 338.269531 C 12.859375 345.289062 15.589844 351.902344 20.574219 356.886719 C 25.472656 361.828125 32.054688 364.53125 39.132812 364.53125 C 46.152344 364.53125 52.75 361.8125 57.691406 356.886719 L 182.882812 231.679688 C 184.816406 229.746094 187.941406 229.746094 189.875 231.679688 C 191.808594 233.609375 191.808594 236.734375 189.875 238.667969 L 64.679688 363.878906 C 57.863281 370.679688 48.796875 374.425781 39.132812 374.425781 " fill-opacity="1" fill-rule="nonzero"/><path fill="#100f0d" d="M 223.574219 180.453125 C 222.308594 180.453125 221.046875 179.972656 220.085938 179 C 218.152344 177.066406 218.152344 173.941406 220.085938 172.007812 L 312.917969 79.175781 L 298.269531 64.5 L 205.453125 157.316406 C 203.519531 159.25 200.394531 159.25 198.464844 157.316406 C 196.53125 155.382812 196.53125 152.257812 198.464844 150.328125 L 294.78125 54.007812 C 295.710938 53.078125 296.960938 52.554688 298.285156 52.554688 C 299.59375 52.554688 300.855469 53.078125 301.785156 54.007812 L 323.394531 75.6875 C 325.328125 77.621094 325.328125 80.746094 323.394531 82.679688 L 227.078125 179 C 226.101562 179.972656 224.839844 180.453125 223.574219 180.453125 " fill-opacity="1" fill-rule="nonzero"/><path fill="#100f0d" d="M 304.054688 56.304688 L 321.113281 73.394531 L 343.550781 64.542969 L 362.445312 34.433594 L 342.984375 14.972656 L 312.875 33.867188 Z M 318.6875 84.976562 L 292.5 58.703125 L 304.867188 27.210938 L 344.410156 2.417969 L 375 33.007812 L 350.207031 72.550781 L 318.6875 84.976562 " fill-opacity="1" fill-rule="nonzero"/><path fill="#100f0d" d="M 98.84375 140.675781 L 314.125 355.957031 C 319.675781 361.507812 327.027344 364.558594 334.875 364.558594 C 342.710938 364.558594 350.0625 361.507812 355.613281 355.957031 C 361.152344 350.421875 364.203125 343.050781 364.203125 335.21875 C 364.203125 327.386719 361.152344 320.019531 355.613281 314.480469 L 140.320312 99.203125 L 141.089844 96.414062 C 147.382812 73.84375 141.015625 49.546875 124.507812 33.023438 C 111.039062 19.566406 92.652344 12.835938 73.953125 14.21875 L 110.558594 50.824219 L 97.855469 98.214844 L 50.46875 110.914062 L 13.859375 74.308594 C 12.496094 93.011719 19.207031 111.394531 32.664062 124.851562 C 49.1875 141.390625 73.484375 147.738281 96.054688 141.449219 Z M 334.875 374.441406 C 324.398438 374.441406 314.546875 370.359375 307.132812 362.960938 L 95.878906 151.707031 C 70.679688 157.664062 44.03125 150.195312 25.675781 131.839844 C 7.570312 113.734375 0.0546875 87.925781 5.578125 62.800781 L 7.523438 53.992188 L 53.417969 99.886719 L 89.792969 90.148438 L 99.527344 53.773438 L 53.636719 7.882812 L 62.441406 5.933594 C 87.566406 0.398438 113.378906 7.910156 131.5 26.03125 C 149.839844 44.386719 157.324219 71.054688 151.351562 96.238281 L 362.605469 307.492188 C 370 314.902344 374.085938 324.757812 374.085938 335.21875 C 374.085938 345.699219 370 355.550781 362.605469 362.960938 C 355.191406 370.359375 345.339844 374.441406 334.875 374.441406 " fill-opacity="1" fill-rule="nonzero"/><path fill="#100f0d" d="M 359.101562 364.398438 C 357.835938 364.398438 356.574219 363.921875 355.613281 362.960938 L 294.957031 302.304688 C 293.023438 300.371094 293.023438 297.234375 294.957031 295.3125 C 296.890625 293.382812 300.015625 293.382812 301.945312 295.3125 L 362.605469 355.957031 C 364.523438 357.890625 364.523438 361.027344 362.605469 362.960938 C 361.628906 363.921875 360.367188 364.398438 359.101562 364.398438 " fill-opacity="1" fill-rule="nonzero"/></svg>