<svg xmlns="http://www.w3.org/2000/svg" xmlns:xlink="http://www.w3.org/1999/xlink" width="1000" zoomAndPan="magnify" viewBox="0 0 750 749.999995" height="1000" preserveAspectRatio="xMidYMid meet" version="1.0"><defs><clipPath id="id1"><path d="M 0 145.3125 L 750 145.3125 L 750 605 L 0 605 Z M 0 145.3125 " clip-rule="nonzero"/></clipPath></defs><g clip-path="url(#id1)"><path fill="#000000" d="M 91.414062 181.933594 C 91.25 187.816406 86.433594 192.539062 80.511719 192.539062 L 10.6875 192.539062 C 4.664062 192.539062 -0.226562 187.65625 -0.226562 181.621094 L -0.226562 156.667969 C -0.226562 150.632812 4.664062 145.746094 10.6875 145.746094 L 80.511719 145.746094 C 86.539062 145.746094 91.421875 150.632812 91.421875 156.667969 L 91.421875 159.703125 C 151.902344 170.371094 201.554688 214.460938 219.011719 273.976562 C 230.84375 314.328125 243.734375 358.28125 251.964844 386.355469 C 254.191406 393.953125 258.957031 400.320312 265.203125 404.59375 L 221.371094 230.445312 C 211.472656 227.4375 204.265625 218.226562 204.265625 207.335938 C 204.265625 207.335938 204.265625 207.332031 204.265625 207.324219 C 204.265625 193.992188 215.066406 183.183594 228.386719 183.183594 C 301.195312 183.183594 652.84375 183.183594 725.652344 183.183594 C 738.972656 183.183594 749.773438 193.992188 749.773438 207.324219 C 749.773438 207.332031 749.773438 207.335938 749.773438 207.335938 C 749.773438 216.917969 744.199219 225.195312 736.121094 229.09375 L 619.050781 384.144531 C 597.414062 412.800781 563.597656 429.644531 527.707031 429.644531 L 516.746094 429.644531 L 555.21875 432.800781 C 557.792969 433.011719 560.210938 434.132812 562.039062 435.960938 L 576.738281 450.675781 L 576.835938 450.597656 C 580.316406 447.917969 583.988281 445.5 587.835938 443.375 C 594.332031 439.789062 601.296875 437.058594 608.5 435.273438 C 619.304688 432.59375 630.636719 432.058594 641.65625 433.671875 C 649.675781 434.847656 657.511719 437.179688 664.878906 440.5625 C 671.691406 443.695312 678.085938 447.738281 683.851562 452.53125 C 689.789062 457.464844 695.066406 463.203125 699.484375 469.535156 C 705.046875 477.523438 709.25 486.457031 711.820312 495.847656 C 714.425781 505.363281 715.359375 515.320312 714.613281 525.152344 C 713.886719 534.707031 711.546875 544.121094 707.710938 552.898438 C 703.421875 562.6875 697.292969 571.652344 689.742188 579.207031 C 682.191406 586.769531 673.234375 592.902344 663.453125 597.191406 C 654.683594 601.03125 645.277344 603.371094 635.730469 604.097656 C 625.902344 604.847656 615.949219 603.914062 606.449219 601.308594 C 597.058594 598.730469 588.140625 594.535156 580.160156 588.960938 C 573.832031 584.535156 568.097656 579.257812 563.167969 573.3125 C 558.378906 567.542969 554.339844 561.144531 551.210938 554.324219 C 547.820312 546.953125 545.5 539.109375 544.324219 531.082031 C 542.710938 520.054688 543.246094 508.714844 545.921875 497.898438 C 547.707031 490.691406 550.433594 483.71875 554.019531 477.222656 C 556.136719 473.375 558.558594 469.695312 561.234375 466.210938 L 561.3125 466.113281 L 549.441406 454.238281 L 387.03125 440.914062 L 363.964844 575.605469 C 361.117188 592.207031 346.730469 604.347656 329.894531 604.347656 C 329.890625 604.347656 329.886719 604.347656 329.878906 604.347656 C 313.046875 604.347656 298.660156 592.207031 295.8125 575.605469 L 270.996094 430.707031 C 252.035156 426.078125 236.648438 411.664062 231.027344 392.507812 C 222.796875 364.429688 209.90625 320.480469 198.066406 280.125 C 183.328125 229.855469 142.050781 192.296875 91.414062 181.933594 Z M 293.570312 433.246094 L 317.320312 571.914062 C 318.371094 578.035156 323.671875 582.511719 329.878906 582.511719 C 329.886719 582.511719 329.890625 582.511719 329.894531 582.511719 C 336.097656 582.511719 341.40625 578.035156 342.453125 571.914062 L 365.203125 439.121094 Z M 576.808594 481.859375 C 575.121094 484.289062 573.582031 486.816406 572.234375 489.453125 C 569.609375 494.570312 567.6875 500.039062 566.53125 505.671875 C 565.042969 512.96875 564.835938 520.527344 565.910156 527.894531 C 566.789062 533.878906 568.523438 539.726562 571.042969 545.21875 C 575.28125 554.4375 581.726562 562.59375 589.695312 568.863281 C 595.890625 573.738281 602.984375 577.449219 610.523438 579.75 C 617.335938 581.828125 624.488281 582.734375 631.605469 582.460938 C 639.296875 582.171875 646.914062 580.484375 654 577.484375 C 661.578125 574.273438 668.503906 569.589844 674.316406 563.769531 C 680.128906 557.953125 684.808594 551.019531 688.019531 543.441406 C 691.019531 536.351562 692.703125 528.722656 692.992188 521.027344 C 693.265625 513.90625 692.355469 506.742188 690.28125 499.925781 C 687.984375 492.378906 684.277344 485.28125 679.40625 479.078125 C 673.140625 471.105469 664.992188 464.65625 655.777344 460.414062 C 650.289062 457.890625 644.441406 456.15625 638.46875 455.28125 C 631.105469 454.199219 623.554688 454.410156 616.265625 455.902344 C 610.636719 457.054688 605.171875 458.976562 600.058594 461.605469 C 597.425781 462.953125 594.894531 464.492188 592.472656 466.183594 L 592.335938 466.28125 L 605.382812 479.34375 C 607.207031 478.238281 609.097656 477.257812 611.050781 476.410156 C 614.777344 474.804688 618.714844 473.703125 622.730469 473.140625 C 627.925781 472.414062 633.238281 472.578125 638.371094 473.625 C 642.496094 474.472656 646.5 475.898438 650.242188 477.847656 C 656.109375 480.898438 661.292969 485.238281 665.351562 490.46875 C 668.761719 494.863281 671.363281 499.871094 672.984375 505.191406 C 674.5 510.175781 675.148438 515.417969 674.914062 520.621094 C 674.675781 526.039062 673.46875 531.40625 671.359375 536.398438 C 669.0625 541.832031 665.699219 546.804688 661.535156 550.976562 C 657.367188 555.148438 652.394531 558.511719 646.96875 560.808594 C 641.976562 562.921875 636.613281 564.128906 631.203125 564.371094 C 626.003906 564.605469 620.765625 563.953125 615.785156 562.4375 C 610.46875 560.816406 605.460938 558.210938 601.074219 554.796875 C 595.847656 550.738281 591.511719 545.550781 588.457031 539.675781 C 586.515625 535.9375 585.089844 531.921875 584.246094 527.796875 C 583.199219 522.65625 583.035156 517.339844 583.761719 512.148438 C 584.320312 508.125 585.421875 504.183594 587.027344 500.453125 C 587.875 498.5 588.855469 496.605469 589.953125 494.78125 L 589.957031 494.78125 L 576.910156 481.722656 Z M 606.261719 511.273438 C 605.425781 513.929688 605.046875 516.707031 605.15625 519.484375 C 605.246094 521.933594 605.71875 524.367188 606.546875 526.675781 C 607.949219 530.589844 610.386719 534.105469 613.546875 536.808594 C 615.894531 538.828125 618.640625 540.386719 621.585938 541.363281 C 624.214844 542.234375 626.992188 542.640625 629.757812 542.570312 C 632.703125 542.5 635.621094 541.875 638.34375 540.746094 C 641.242188 539.539062 643.890625 537.757812 646.105469 535.539062 C 648.328125 533.320312 650.105469 530.667969 651.308594 527.769531 C 652.441406 525.050781 653.054688 522.125 653.132812 519.175781 C 653.203125 516.40625 652.800781 513.628906 651.925781 510.996094 C 650.949219 508.046875 649.394531 505.308594 647.378906 502.949219 C 644.675781 499.789062 641.164062 497.347656 637.246094 495.945312 C 634.945312 495.113281 632.511719 494.644531 630.070312 494.550781 C 627.292969 494.449219 624.515625 494.824219 621.863281 495.660156 L 621.734375 495.703125 L 636.855469 510.839844 C 641.109375 515.097656 641.109375 522.015625 636.855469 526.277344 C 632.59375 530.535156 625.683594 530.535156 621.421875 526.277344 L 606.300781 511.144531 Z M 379.925781 407.804688 L 527.707031 407.804688 C 556.757812 407.804688 584.125 394.171875 601.640625 370.976562 L 706.96875 231.476562 L 244.136719 231.476562 L 288.515625 407.804688 L 379.675781 407.804688 C 379.722656 407.804688 379.765625 407.804688 379.808594 407.804688 Z M 725.652344 209.640625 C 726.921875 209.640625 727.953125 208.609375 727.953125 207.335938 L 727.953125 207.324219 C 727.953125 206.054688 726.921875 205.019531 725.652344 205.019531 C 652.84375 205.019531 301.195312 205.019531 228.386719 205.019531 C 227.117188 205.019531 226.085938 206.054688 226.085938 207.324219 C 226.085938 207.332031 226.085938 207.335938 226.085938 207.335938 C 226.085938 208.609375 227.117188 209.640625 228.386719 209.640625 Z M 21.597656 167.585938 L 21.597656 170.703125 L 69.601562 170.703125 L 69.601562 167.585938 Z M 21.597656 167.585938 " fill-opacity="1" fill-rule="evenodd"/></g></svg>