<svg xmlns="http://www.w3.org/2000/svg" xmlns:xlink="http://www.w3.org/1999/xlink" width="500" zoomAndPan="magnify" viewBox="0 0 375 374.999991" height="500" preserveAspectRatio="xMidYMid meet" version="1.0"><path fill="#000000" d="M 212.296875 320.304688 C 208.863281 319.066406 205.078125 320.84375 203.839844 324.269531 C 202.542969 327.859375 199.929688 330.726562 196.472656 332.347656 C 189.339844 335.699219 180.808594 332.621094 177.457031 325.496094 C 174.105469 318.367188 177.183594 309.847656 184.320312 306.5 C 189.53125 304.050781 195.667969 304.957031 199.953125 308.800781 C 202.667969 311.234375 206.84375 311.007812 209.28125 308.296875 C 211.71875 305.585938 211.492188 301.414062 208.777344 298.980469 C 200.53125 291.585938 188.726562 289.847656 178.703125 294.554688 C 164.972656 300.996094 159.050781 317.390625 165.5 331.105469 C 170.179688 341.054688 180.097656 346.898438 190.4375 346.898438 C 194.347656 346.898438 198.320312 346.058594 202.085938 344.292969 C 208.734375 341.171875 213.769531 335.652344 216.265625 328.75 C 217.503906 325.320312 215.726562 321.539062 212.296875 320.304688 Z M 212.296875 320.304688 " fill-opacity="1" fill-rule="nonzero"/><path fill="#000000" d="M 360.238281 239.726562 C 358.6875 236.429688 354.753906 235.011719 351.449219 236.558594 L 237.578125 289.992188 C 224.042969 268.304688 197.171875 258.621094 172.894531 266.679688 L 56.46875 19.066406 C 55.378906 16.75 53.050781 15.273438 50.488281 15.273438 L 9.722656 15.273438 C 6.074219 15.273438 3.117188 18.226562 3.117188 21.871094 C 3.117188 25.515625 6.078125 28.46875 9.722656 28.46875 L 46.292969 28.46875 L 160.9375 272.289062 C 137.371094 286.964844 127.945312 317.335938 140.039062 343.050781 C 149.5 363.175781 169.570312 375 190.480469 375 C 198.390625 375 206.429688 373.304688 214.050781 369.730469 C 227.5 363.417969 237.6875 352.25 242.730469 338.285156 C 247.019531 326.414062 247.136719 313.726562 243.199219 301.933594 L 330.605469 260.921875 L 337.019531 274.558594 C 338.144531 276.949219 340.523438 278.351562 343 278.351562 C 343.941406 278.351562 344.898438 278.148438 345.804688 277.722656 C 349.109375 276.175781 350.527344 272.246094 348.976562 268.945312 L 342.5625 255.308594 L 357.066406 248.503906 C 360.367188 246.953125 361.789062 243.023438 360.238281 239.726562 Z M 230.304688 333.808594 C 226.457031 344.457031 218.691406 352.972656 208.433594 357.785156 C 187.257812 367.71875 161.941406 358.59375 151.996094 337.441406 C 142.046875 316.289062 151.183594 290.996094 172.359375 281.058594 C 178.089844 278.371094 184.21875 277.015625 190.371094 277.015625 C 195.222656 277.015625 200.09375 277.859375 204.796875 279.554688 C 215.457031 283.394531 223.980469 291.15625 228.796875 301.402344 C 233.613281 311.652344 234.152344 323.160156 230.304688 333.808594 Z M 230.304688 333.808594 " fill-opacity="1" fill-rule="nonzero"/><path fill="#000000" d="M 311.007812 234.730469 C 309.457031 231.429688 305.523438 230.011719 302.222656 231.5625 L 234.796875 263.199219 C 231.496094 264.75 230.078125 268.679688 231.628906 271.976562 C 232.753906 274.367188 235.128906 275.769531 237.609375 275.769531 C 238.550781 275.769531 239.507812 275.570312 240.414062 275.144531 L 307.835938 243.507812 C 311.140625 241.957031 312.558594 238.027344 311.007812 234.730469 Z M 311.007812 234.730469 " fill-opacity="1" fill-rule="nonzero"/><path fill="#000000" d="M 370.75 206.695312 L 336.675781 134.226562 C 335.929688 132.640625 334.585938 131.417969 332.9375 130.824219 C 331.292969 130.230469 329.476562 130.316406 327.890625 131.058594 L 172.566406 203.941406 L 144.105469 143.417969 L 172.265625 130.203125 C 175.566406 128.652344 176.988281 124.722656 175.4375 121.425781 C 173.882812 118.125 169.949219 116.710938 166.648438 118.257812 L 138.488281 131.472656 L 110.03125 70.945312 L 226.4375 16.324219 L 254.894531 76.851562 L 187.988281 108.25 C 184.683594 109.796875 183.265625 113.726562 184.816406 117.023438 C 186.367188 120.324219 190.300781 121.738281 193.601562 120.191406 L 279.300781 79.980469 L 301.949219 128.144531 C 303.074219 130.539062 305.453125 131.941406 307.929688 131.941406 C 308.871094 131.941406 309.828125 131.738281 310.734375 131.3125 C 314.039062 129.761719 315.457031 125.832031 313.90625 122.535156 L 288.449219 68.398438 C 286.898438 65.097656 282.964844 63.683594 279.664062 65.230469 L 266.851562 71.242188 L 235.582031 4.742188 C 234.03125 1.445312 230.097656 0.0273438 226.796875 1.578125 L 98.4375 61.808594 C 95.136719 63.359375 93.714844 67.289062 95.265625 70.585938 L 180.652344 252.1875 C 181.777344 254.578125 184.15625 255.980469 186.636719 255.980469 C 187.578125 255.980469 188.53125 255.78125 189.441406 255.355469 C 192.742188 253.804688 194.160156 249.875 192.609375 246.578125 L 178.179688 215.886719 L 327.527344 145.808594 L 355.984375 206.335938 L 323.554688 221.550781 C 320.253906 223.101562 318.835938 227.03125 320.386719 230.328125 C 321.9375 233.628906 325.871094 235.042969 329.171875 233.496094 L 367.578125 215.472656 C 370.882812 213.925781 372.300781 209.996094 370.75 206.695312 Z M 370.75 206.695312 " fill-opacity="1" fill-rule="nonzero"/></svg>