<svg xmlns="http://www.w3.org/2000/svg" xmlns:xlink="http://www.w3.org/1999/xlink" width="500" zoomAndPan="magnify" viewBox="0 0 375 374.999991" height="500" preserveAspectRatio="xMidYMid meet" version="1.0"><defs><clipPath id="id1"><path d="M 23.4375 0 L 351.9375 0 L 351.9375 375 L 23.4375 375 Z M 23.4375 0 " clip-rule="nonzero"/></clipPath></defs><g clip-path="url(#id1)"><path fill="#000000" d="M 152.492188 0 C 141.238281 0 132.234375 7.074219 125.566406 16.113281 C 118.921875 25.175781 114.039062 36.621094 110.261719 47.949219 C 104.875 64.0625 101.917969 79.695312 100.613281 87.570312 C 90.804688 90.386719 81.617188 93.589844 73.300781 97.273438 C 58.472656 103.867188 46.238281 111.761719 37.484375 120.941406 C 28.753906 130.121094 23.4375 140.855469 23.4375 152.34375 C 23.4375 165.414062 30.265625 177.429688 41.3125 187.453125 C 51.484375 196.722656 65.484375 204.527344 82.097656 210.914062 L 82.097656 246.09375 L 139.269531 246.09375 C 141.5625 248.382812 143.988281 250.558594 146.625 252.480469 L 146.625 265.066406 C 137.871094 267.585938 116.378906 274.132812 94.378906 283.972656 C 80.171875 290.3125 65.851562 297.957031 54.738281 307 C 43.625 316.0625 35.167969 326.933594 35.167969 339.84375 L 35.167969 375 L 340.207031 375 L 340.207031 339.84375 C 340.207031 326.933594 331.75 316.0625 320.636719 307 C 309.523438 297.957031 295.203125 290.3125 280.996094 283.972656 C 258.996094 274.132812 237.503906 267.585938 228.75 265.066406 L 228.75 252.480469 C 231.386719 250.558594 233.8125 248.382812 236.105469 246.09375 L 293.277344 246.09375 L 293.277344 210.960938 C 310.164062 204.484375 324.324219 196.496094 334.570312 187.019531 C 345.292969 177.0625 351.9375 165.207031 351.9375 152.34375 C 351.9375 140.855469 346.621094 130.121094 337.890625 120.941406 C 329.136719 111.761719 316.902344 103.867188 302.074219 97.273438 C 293.757812 93.589844 284.570312 90.386719 274.761719 87.570312 C 273.457031 79.695312 270.5 64.0625 265.113281 47.949219 C 261.335938 36.621094 256.453125 25.175781 249.808594 16.113281 C 243.140625 7.074219 234.136719 0 222.882812 0 C 212.777344 0 205.515625 3.570312 200.175781 6.636719 C 194.835938 9.683594 191.605469 11.71875 187.6875 11.71875 C 183.769531 11.71875 180.539062 9.683594 175.199219 6.636719 C 169.859375 3.570312 162.597656 0 152.492188 0 Z M 152.492188 11.71875 C 159.984375 11.71875 164.453125 14.007812 169.378906 16.800781 C 174.304688 19.613281 179.875 23.4375 187.6875 23.4375 C 195.5 23.4375 201.070312 19.613281 205.996094 16.800781 C 210.921875 14.007812 215.390625 11.71875 222.882812 11.71875 C 229.230469 11.71875 234.890625 15.632812 240.320312 23.070312 C 245.773438 30.488281 250.425781 41.015625 253.980469 51.660156 C 258.125 64.085938 260.691406 76.058594 262.226562 84.320312 C 239.839844 79.125 214.566406 76.171875 187.6875 76.171875 C 160.808594 76.171875 135.535156 79.125 113.148438 84.320312 C 114.683594 76.058594 117.25 64.085938 121.394531 51.660156 C 124.949219 41.015625 129.601562 30.488281 135.054688 23.070312 C 140.484375 15.632812 146.144531 11.71875 152.492188 11.71875 Z M 187.6875 87.890625 C 230.71875 87.890625 269.652344 95.695312 297.308594 107.964844 C 311.128906 114.121094 322.101562 121.375 329.390625 129.019531 C 336.652344 136.664062 340.207031 144.425781 340.207031 152.34375 C 340.207031 161.222656 335.714844 169.96875 326.59375 178.414062 C 318.644531 185.785156 307.046875 192.605469 293.023438 198.394531 C 292.175781 184.867188 288.921875 172.417969 284.9375 161.863281 C 286.472656 158.914062 287.410156 155.683594 287.410156 152.34375 C 287.410156 145.386719 283.605469 139.183594 278.0625 134.285156 C 272.515625 129.363281 265.070312 125.335938 256.109375 121.992188 C 238.214844 115.289062 214.199219 111.328125 187.6875 111.328125 C 161.175781 111.328125 137.160156 115.289062 119.265625 121.992188 C 110.304688 125.335938 102.859375 129.363281 97.3125 134.285156 C 91.769531 139.183594 87.964844 145.386719 87.964844 152.34375 C 87.964844 155.523438 88.8125 158.613281 90.234375 161.429688 C 86.496094 172.394531 83.199219 185.164062 82.328125 198.394531 C 68.554688 192.695312 57.144531 186.035156 49.191406 178.800781 C 39.796875 170.242188 35.167969 161.363281 35.167969 152.34375 C 35.167969 144.425781 38.722656 136.664062 45.984375 129.019531 C 53.273438 121.375 64.246094 114.121094 78.066406 107.964844 C 105.722656 95.695312 144.65625 87.890625 187.6875 87.890625 Z M 187.6875 123.046875 C 208.996094 123.046875 228.566406 125.839844 243.804688 130.300781 C 245.339844 135.015625 246.347656 140.898438 246.347656 148.359375 L 246.347656 189.652344 C 246.347656 222.085938 229.164062 247.695312 199.074219 253.050781 L 197.402344 253.328125 L 196.144531 254.492188 C 193.851562 256.578125 190.964844 257.8125 187.6875 257.8125 C 184.410156 257.8125 181.523438 256.578125 179.230469 254.492188 L 177.972656 253.328125 L 176.300781 253.050781 C 146.210938 247.695312 129.027344 222.085938 129.027344 189.675781 L 129.027344 156.761719 C 129.027344 143.738281 133.082031 134.949219 139.132812 128.335938 C 153.085938 125.039062 169.746094 123.046875 187.6875 123.046875 Z M 121.96875 133.550781 C 119.058594 140.167969 117.292969 147.878906 117.292969 156.761719 L 117.292969 189.675781 C 117.292969 206.269531 121.71875 221.761719 129.828125 234.375 L 93.832031 234.375 L 93.832031 205.078125 C 93.832031 173.949219 111.65625 140.535156 113.285156 137.535156 C 115.851562 136.140625 118.785156 134.8125 121.96875 133.550781 Z M 256.910156 134.996094 C 257.164062 135.085938 257.414062 135.199219 257.644531 135.292969 C 258.722656 136.710938 281.542969 167.382812 281.542969 205.078125 L 281.542969 234.375 L 245.546875 234.375 C 253.65625 221.761719 258.082031 206.269531 258.082031 189.652344 L 258.082031 148.359375 C 258.082031 143.441406 257.621094 139.046875 256.910156 134.996094 Z M 155.425781 164.0625 C 150.566406 164.0625 146.625 168 146.625 172.851562 C 146.625 177.703125 150.566406 181.640625 155.425781 181.640625 C 160.28125 181.640625 164.222656 177.703125 164.222656 172.851562 C 164.222656 168 160.28125 164.0625 155.425781 164.0625 Z M 219.949219 164.0625 C 215.09375 164.0625 211.152344 168 211.152344 172.851562 C 211.152344 177.703125 215.09375 181.640625 219.949219 181.640625 C 224.808594 181.640625 228.75 177.703125 228.75 172.851562 C 228.75 168 224.808594 164.0625 219.949219 164.0625 Z M 217.019531 259.324219 L 217.019531 288.597656 C 216.308594 290.015625 208.675781 304.6875 187.6875 304.6875 C 166.699219 304.6875 159.066406 290.015625 158.355469 288.597656 L 158.355469 259.347656 C 162.824219 261.335938 167.570312 262.9375 172.65625 263.96875 C 176.78125 267.289062 181.9375 269.53125 187.6875 269.53125 C 193.4375 269.53125 198.59375 267.289062 202.71875 263.96875 C 207.804688 262.9375 212.550781 261.335938 217.019531 259.324219 Z M 146.625 277.335938 L 146.625 291.847656 L 147.242188 293.058594 C 147.242188 293.058594 159.410156 316.40625 187.6875 316.40625 C 215.964844 316.40625 228.132812 293.058594 228.132812 293.058594 L 228.75 291.847656 L 228.75 277.335938 C 238.601562 280.242188 257.1875 286.148438 276.226562 294.640625 C 289.886719 300.75 303.429688 308.121094 313.210938 316.109375 C 322.996094 324.074219 328.472656 332.246094 328.472656 339.84375 L 328.472656 363.28125 L 46.902344 363.28125 L 46.902344 339.84375 C 46.902344 332.246094 52.378906 324.074219 62.164062 316.109375 C 71.945312 308.121094 85.488281 300.75 99.148438 294.640625 C 118.1875 286.148438 136.773438 280.242188 146.625 277.335938 Z M 70.367188 339.84375 C 67.136719 339.84375 64.5 342.476562 64.5 345.703125 C 64.5 348.929688 67.136719 351.5625 70.367188 351.5625 C 73.597656 351.5625 76.230469 348.929688 76.230469 345.703125 C 76.230469 342.476562 73.597656 339.84375 70.367188 339.84375 Z M 93.832031 339.84375 C 90.597656 339.84375 87.964844 342.476562 87.964844 345.703125 C 87.964844 348.929688 90.597656 351.5625 93.832031 351.5625 C 97.0625 351.5625 99.695312 348.929688 99.695312 345.703125 C 99.695312 342.476562 97.0625 339.84375 93.832031 339.84375 Z M 117.292969 339.84375 C 114.0625 339.84375 111.429688 342.476562 111.429688 345.703125 C 111.429688 348.929688 114.0625 351.5625 117.292969 351.5625 C 120.527344 351.5625 123.160156 348.929688 123.160156 345.703125 C 123.160156 342.476562 120.527344 339.84375 117.292969 339.84375 Z M 140.757812 339.84375 C 137.527344 339.84375 134.894531 342.476562 134.894531 345.703125 C 134.894531 348.929688 137.527344 351.5625 140.757812 351.5625 C 143.988281 351.5625 146.625 348.929688 146.625 345.703125 C 146.625 342.476562 143.988281 339.84375 140.757812 339.84375 Z M 164.222656 339.84375 C 160.992188 339.84375 158.355469 342.476562 158.355469 345.703125 C 158.355469 348.929688 160.992188 351.5625 164.222656 351.5625 C 167.453125 351.5625 170.089844 348.929688 170.089844 345.703125 C 170.089844 342.476562 167.453125 339.84375 164.222656 339.84375 Z M 187.6875 339.84375 C 184.457031 339.84375 181.820312 342.476562 181.820312 345.703125 C 181.820312 348.929688 184.457031 351.5625 187.6875 351.5625 C 190.917969 351.5625 193.554688 348.929688 193.554688 345.703125 C 193.554688 342.476562 190.917969 339.84375 187.6875 339.84375 Z M 211.152344 339.84375 C 207.921875 339.84375 205.285156 342.476562 205.285156 345.703125 C 205.285156 348.929688 207.921875 351.5625 211.152344 351.5625 C 214.382812 351.5625 217.019531 348.929688 217.019531 345.703125 C 217.019531 342.476562 214.382812 339.84375 211.152344 339.84375 Z M 234.617188 339.84375 C 231.386719 339.84375 228.75 342.476562 228.75 345.703125 C 228.75 348.929688 231.386719 351.5625 234.617188 351.5625 C 237.847656 351.5625 240.480469 348.929688 240.480469 345.703125 C 240.480469 342.476562 237.847656 339.84375 234.617188 339.84375 Z M 258.082031 339.84375 C 254.847656 339.84375 252.214844 342.476562 252.214844 345.703125 C 252.214844 348.929688 254.847656 351.5625 258.082031 351.5625 C 261.3125 351.5625 263.945312 348.929688 263.945312 345.703125 C 263.945312 342.476562 261.3125 339.84375 258.082031 339.84375 Z M 281.542969 339.84375 C 278.3125 339.84375 275.679688 342.476562 275.679688 345.703125 C 275.679688 348.929688 278.3125 351.5625 281.542969 351.5625 C 284.777344 351.5625 287.410156 348.929688 287.410156 345.703125 C 287.410156 342.476562 284.777344 339.84375 281.542969 339.84375 Z M 305.007812 339.84375 C 301.777344 339.84375 299.144531 342.476562 299.144531 345.703125 C 299.144531 348.929688 301.777344 351.5625 305.007812 351.5625 C 308.238281 351.5625 310.875 348.929688 310.875 345.703125 C 310.875 342.476562 308.238281 339.84375 305.007812 339.84375 Z M 305.007812 339.84375 " fill-opacity="1" fill-rule="nonzero"/></g></svg>