<svg xmlns="http://www.w3.org/2000/svg" xmlns:xlink="http://www.w3.org/1999/xlink" width="500" zoomAndPan="magnify" viewBox="0 0 375 374.999991" height="500" preserveAspectRatio="xMidYMid meet" version="1.0"><defs><clipPath id="id1"><path d="M 42.65625 0.0546875 L 331.890625 0.0546875 L 331.890625 374.945312 L 42.65625 374.945312 Z M 42.65625 0.0546875 " clip-rule="nonzero"/></clipPath></defs><g clip-path="url(#id1)"><path fill="#100f0d" d="M 144.035156 224.609375 C 144.300781 225.640625 144.667969 226.640625 145.132812 227.605469 C 150.488281 238.488281 159.5 247.175781 170.609375 252.066406 C 181.054688 256.660156 192.992188 256.660156 203.4375 252.066406 C 214.511719 247.175781 223.527344 238.488281 228.882812 227.605469 C 229.347656 226.640625 229.714844 225.640625 229.980469 224.609375 L 287.222656 232.265625 C 302.820312 234.328125 314.960938 246.875 316.523438 262.519531 L 324.804688 344.523438 C 326.003906 356.375 317.386719 366.957031 305.546875 368.15625 C 304.816406 368.1875 304.117188 368.253906 303.386719 368.253906 L 70.59375 368.253906 C 58.722656 368.253906 49.074219 358.601562 49.042969 346.722656 C 49.042969 345.988281 49.074219 345.257812 49.175781 344.523438 L 57.457031 262.519531 C 59.019531 246.875 71.160156 234.328125 86.761719 232.265625 Z M 160.03125 200.847656 C 177.296875 208.066406 196.71875 208.066406 213.980469 200.847656 C 218.835938 205.773438 222.195312 211.996094 223.59375 218.785156 C 224.027344 220.78125 223.792969 222.84375 222.894531 224.644531 C 218.238281 234.128906 210.390625 241.683594 200.742188 245.945312 C 192.03125 249.804688 182.050781 249.804688 173.335938 245.945312 C 163.691406 241.683594 155.84375 234.128906 151.183594 224.644531 C 150.320312 222.84375 150.054688 220.78125 150.488281 218.785156 C 151.882812 211.996094 155.242188 205.773438 160.097656 200.847656 Z M 124.042969 111.515625 L 249.96875 111.515625 L 249.96875 136.578125 C 249.871094 171.359375 221.632812 199.515625 186.875 199.449219 C 152.214844 199.347656 124.113281 171.257812 124.042969 136.578125 Z M 172.074219 6.746094 L 201.90625 6.746094 L 201.90625 18.09375 C 234.503906 27.945312 258.449219 55.835938 263.207031 89.585938 C 263.574219 92.246094 265.835938 94.210938 268.496094 94.175781 L 268.863281 94.175781 L 268.863281 104.828125 L 105.21875 104.828125 L 105.21875 94.175781 L 105.585938 94.175781 C 108.246094 94.175781 110.472656 92.214844 110.839844 89.585938 C 115.597656 55.835938 139.511719 27.945312 172.140625 18.09375 Z M 171.90625 0.0546875 C 168.414062 0.0546875 165.585938 2.882812 165.585938 6.378906 L 165.585938 13.269531 C 133.160156 24.949219 109.742188 53.441406 104.519531 87.488281 L 103.988281 87.488281 C 101.027344 87.488281 98.632812 89.882812 98.632812 92.84375 L 98.632812 106.191406 C 98.632812 109.121094 101.027344 111.515625 103.957031 111.515625 C 103.988281 111.515625 103.988281 111.515625 103.988281 111.515625 L 117.527344 111.515625 L 117.527344 136.578125 C 117.527344 162.105469 131.460938 185.601562 153.878906 197.785156 C 148.921875 203.375 145.566406 210.132812 144.035156 217.453125 C 144.035156 217.585938 144.035156 217.71875 144.035156 217.886719 L 86.128906 225.609375 C 67.46875 228.105469 52.96875 243.113281 51.070312 261.851562 L 42.789062 343.859375 C 41.226562 359.402344 52.535156 373.246094 68.035156 374.8125 C 69 374.878906 69.929688 374.945312 70.894531 374.945312 L 303.652344 374.945312 C 319.21875 374.945312 331.855469 362.332031 331.855469 346.722656 C 331.855469 345.757812 331.824219 344.792969 331.722656 343.859375 L 331.558594 343.859375 L 323.277344 261.851562 C 321.378906 243.113281 306.878906 228.136719 288.21875 225.609375 L 230.3125 217.886719 C 230.3125 217.71875 230.3125 217.585938 230.3125 217.453125 C 228.816406 210.132812 225.421875 203.375 220.46875 197.785156 C 242.886719 185.601562 256.820312 162.105469 256.820312 136.578125 L 256.820312 111.515625 L 270.359375 111.515625 C 273.316406 111.515625 275.714844 109.121094 275.714844 106.191406 L 275.714844 92.84375 C 275.714844 89.882812 273.316406 87.488281 270.390625 87.488281 C 270.359375 87.488281 270.359375 87.488281 270.359375 87.488281 L 269.824219 87.488281 C 264.605469 53.441406 241.15625 24.949219 208.757812 13.269531 L 208.757812 6.378906 C 208.757812 2.882812 205.933594 0.0546875 202.441406 0.0546875 L 171.90625 0.0546875 " fill-opacity="1" fill-rule="nonzero"/></g><path fill="#100f0d" d="M 171.140625 91.347656 L 201.375 55.46875 C 201.742188 55.070312 201.707031 54.472656 201.34375 54.105469 C 201.144531 53.972656 200.941406 53.871094 200.710938 53.871094 L 189.566406 53.871094 L 202.207031 34.933594 C 202.507812 34.503906 202.40625 33.902344 201.972656 33.601562 C 201.808594 33.503906 201.609375 33.46875 201.441406 33.4375 L 187.9375 33.4375 C 187.574219 33.4375 187.238281 33.636719 187.074219 33.96875 L 172.773438 61.425781 C 172.503906 61.894531 172.707031 62.460938 173.171875 62.691406 C 173.304688 62.757812 173.4375 62.792969 173.601562 62.792969 L 182.183594 62.792969 L 170.277344 90.75 C 170.144531 91.015625 170.242188 91.316406 170.511719 91.449219 C 170.742188 91.582031 170.976562 91.515625 171.140625 91.347656 " fill-opacity="1" fill-rule="nonzero"/></svg>