<svg xmlns="http://www.w3.org/2000/svg" xmlns:xlink="http://www.w3.org/1999/xlink" width="500" zoomAndPan="magnify" viewBox="0 0 375 374.999991" height="500" preserveAspectRatio="xMidYMid meet" version="1.0"><defs><clipPath id="id1"><path d="M 0 32.628906 L 375 32.628906 L 375 342.378906 L 0 342.378906 Z M 0 32.628906 " clip-rule="nonzero"/></clipPath></defs><g clip-path="url(#id1)"><path fill="#dadada" d="M 23.195312 316.480469 C 7.757812 284.800781 0.00390625 236.078125 0.00390625 187.503906 C 0.00390625 138.925781 7.757812 90.203125 23.195312 58.527344 C 23.925781 56.988281 25.242188 55.890625 26.707031 55.378906 C 61.671875 40.234375 124.660156 32.628906 187.5 32.628906 C 250.558594 32.628906 313.839844 40.308594 348.734375 55.527344 C 350.125 56.183594 351.148438 57.207031 351.804688 58.527344 C 367.242188 90.203125 374.996094 138.925781 374.996094 187.503906 C 374.996094 236.078125 367.242188 284.800781 351.804688 316.480469 C 351.074219 318.015625 349.757812 319.113281 348.292969 319.625 C 313.328125 334.769531 250.339844 342.378906 187.5 342.378906 C 124.441406 342.378906 61.160156 334.695312 26.265625 319.40625 C 24.875 318.820312 23.851562 317.722656 23.195312 316.480469 Z M 12.441406 187.503906 C 12.441406 233.300781 19.390625 279.023438 33.363281 309.019531 C 67.085938 322.992188 127.21875 329.941406 187.5 329.941406 C 247.851562 329.941406 307.914062 322.992188 341.636719 309.019531 C 355.609375 279.023438 362.558594 233.300781 362.558594 187.503906 C 362.558594 141.707031 355.609375 95.980469 341.636719 65.988281 C 307.914062 52.015625 247.851562 45.066406 187.5 45.066406 C 127.148438 45.066406 67.085938 52.015625 33.363281 65.988281 C 19.390625 95.980469 12.441406 141.707031 12.441406 187.503906 Z M 12.441406 187.503906 " fill-opacity="1" fill-rule="nonzero"/></g><path fill="#dadada" d="M 150.117188 118.003906 L 244.632812 182.382812 C 247.488281 184.355469 248.21875 188.160156 246.316406 191.015625 C 245.804688 191.671875 245.21875 192.257812 244.5625 192.695312 L 149.824219 257.222656 C 146.972656 259.125 143.167969 258.394531 141.191406 255.613281 C 140.460938 254.515625 140.167969 253.273438 140.167969 252.101562 L 140.167969 122.90625 C 140.167969 119.464844 142.875 116.6875 146.3125 116.6875 C 147.777344 116.6875 149.09375 117.199219 150.117188 118.003906 Z M 230.222656 187.503906 L 152.53125 134.609375 L 152.53125 240.394531 Z M 230.222656 187.503906 " fill-opacity="1" fill-rule="nonzero"/></svg>