<svg xmlns="http://www.w3.org/2000/svg" xmlns:xlink="http://www.w3.org/1999/xlink" width="500" zoomAndPan="magnify" viewBox="0 0 375 374.999991" height="500" preserveAspectRatio="xMidYMid meet" version="1.0"><path fill="#c9c9c6" d="M 110.796875 0 C 49.707031 0 0 49.707031 0 110.796875 L 0 264.203125 C 0 325.292969 49.707031 375 110.796875 375 L 264.203125 375 C 325.292969 375 375 325.292969 375 264.203125 L 375 110.796875 C 375 49.707031 325.292969 0 264.203125 0 Z M 110.796875 17.046875 L 264.203125 17.046875 C 316.078125 17.046875 357.953125 58.921875 357.953125 110.796875 L 357.953125 264.203125 C 357.953125 316.078125 316.078125 357.953125 264.203125 357.953125 L 110.796875 357.953125 C 58.921875 357.953125 17.046875 316.078125 17.046875 264.203125 L 17.046875 110.796875 C 17.046875 58.921875 58.921875 17.046875 110.796875 17.046875 Z M 289.773438 68.183594 C 289.214844 68.183594 288.65625 68.210938 288.101562 68.265625 C 287.546875 68.320312 286.996094 68.402344 286.449219 68.507812 C 285.898438 68.617188 285.359375 68.753906 284.824219 68.914062 C 284.289062 69.078125 283.765625 69.265625 283.25 69.480469 C 282.734375 69.691406 282.230469 69.929688 281.738281 70.195312 C 281.246094 70.457031 280.765625 70.746094 280.300781 71.054688 C 279.839844 71.363281 279.390625 71.695312 278.960938 72.050781 C 278.527344 72.40625 278.113281 72.78125 277.71875 73.175781 C 277.324219 73.570312 276.949219 73.980469 276.597656 74.414062 C 276.242188 74.84375 275.910156 75.292969 275.601562 75.757812 C 275.289062 76.222656 275.003906 76.699219 274.738281 77.191406 C 274.476562 77.683594 274.238281 78.1875 274.023438 78.703125 C 273.8125 79.21875 273.625 79.746094 273.460938 80.277344 C 273.300781 80.8125 273.164062 81.355469 273.054688 81.902344 C 272.945312 82.449219 272.863281 83 272.808594 83.554688 C 272.753906 84.113281 272.726562 84.667969 272.726562 85.226562 C 272.726562 85.785156 272.753906 86.34375 272.808594 86.898438 C 272.863281 87.453125 272.945312 88.003906 273.054688 88.550781 C 273.164062 89.101562 273.300781 89.640625 273.460938 90.175781 C 273.625 90.710938 273.8125 91.234375 274.023438 91.75 C 274.238281 92.265625 274.476562 92.769531 274.738281 93.261719 C 275.003906 93.753906 275.289062 94.234375 275.601562 94.695312 C 275.910156 95.160156 276.242188 95.609375 276.597656 96.039062 C 276.949219 96.472656 277.324219 96.886719 277.71875 97.28125 C 278.113281 97.675781 278.527344 98.050781 278.960938 98.402344 C 279.390625 98.757812 279.839844 99.089844 280.300781 99.398438 C 280.765625 99.710938 281.246094 99.996094 281.738281 100.261719 C 282.230469 100.523438 282.734375 100.761719 283.25 100.976562 C 283.765625 101.1875 284.289062 101.375 284.824219 101.539062 C 285.359375 101.699219 285.898438 101.835938 286.449219 101.945312 C 286.996094 102.054688 287.546875 102.136719 288.101562 102.191406 C 288.65625 102.246094 289.214844 102.273438 289.773438 102.273438 C 290.332031 102.273438 290.886719 102.246094 291.445312 102.191406 C 292 102.136719 292.550781 102.054688 293.097656 101.945312 C 293.644531 101.835938 294.1875 101.699219 294.722656 101.539062 C 295.253906 101.375 295.78125 101.1875 296.296875 100.976562 C 296.8125 100.761719 297.316406 100.523438 297.808594 100.261719 C 298.300781 99.996094 298.777344 99.710938 299.242188 99.398438 C 299.707031 99.089844 300.15625 98.757812 300.585938 98.402344 C 301.019531 98.050781 301.429688 97.675781 301.824219 97.28125 C 302.21875 96.886719 302.59375 96.472656 302.949219 96.039062 C 303.304688 95.609375 303.636719 95.160156 303.945312 94.695312 C 304.253906 94.234375 304.542969 93.753906 304.804688 93.261719 C 305.070312 92.769531 305.308594 92.265625 305.519531 91.75 C 305.734375 91.234375 305.921875 90.710938 306.085938 90.175781 C 306.246094 89.640625 306.382812 89.101562 306.492188 88.550781 C 306.597656 88.003906 306.679688 87.453125 306.734375 86.898438 C 306.789062 86.34375 306.816406 85.785156 306.816406 85.226562 C 306.816406 84.667969 306.789062 84.113281 306.734375 83.554688 C 306.679688 83 306.597656 82.449219 306.492188 81.902344 C 306.382812 81.355469 306.246094 80.8125 306.085938 80.277344 C 305.921875 79.746094 305.734375 79.21875 305.519531 78.703125 C 305.308594 78.1875 305.070312 77.683594 304.804688 77.191406 C 304.542969 76.699219 304.253906 76.222656 303.945312 75.757812 C 303.636719 75.292969 303.304688 74.84375 302.949219 74.414062 C 302.59375 73.980469 302.21875 73.570312 301.824219 73.175781 C 301.429688 72.78125 301.019531 72.40625 300.585938 72.050781 C 300.15625 71.695312 299.707031 71.363281 299.242188 71.054688 C 298.777344 70.746094 298.300781 70.457031 297.808594 70.195312 C 297.316406 69.929688 296.8125 69.691406 296.296875 69.480469 C 295.78125 69.265625 295.253906 69.078125 294.722656 68.914062 C 294.1875 68.753906 293.644531 68.617188 293.097656 68.507812 C 292.550781 68.402344 292 68.320312 291.445312 68.265625 C 290.886719 68.210938 290.332031 68.183594 289.773438 68.183594 Z M 187.5 93.75 C 135.824219 93.75 93.75 135.824219 93.75 187.5 C 93.75 239.175781 135.824219 281.25 187.5 281.25 C 239.175781 281.25 281.25 239.175781 281.25 187.5 C 281.25 135.824219 239.175781 93.75 187.5 93.75 Z M 187.5 110.796875 C 229.964844 110.796875 264.203125 145.035156 264.203125 187.5 C 264.203125 229.964844 229.964844 264.203125 187.5 264.203125 C 145.035156 264.203125 110.796875 229.964844 110.796875 187.5 C 110.796875 145.035156 145.035156 110.796875 187.5 110.796875 Z M 187.5 110.796875 " fill-opacity="1" fill-rule="nonzero"/></svg>