<svg xmlns="http://www.w3.org/2000/svg" xmlns:xlink="http://www.w3.org/1999/xlink" width="500" zoomAndPan="magnify" viewBox="0 0 375 374.999991" height="500" preserveAspectRatio="xMidYMid meet" version="1.0"><defs><clipPath id="id1"><path d="M 0 3.046875 L 372 3.046875 L 372 372.046875 L 0 372.046875 Z M 0 3.046875 " clip-rule="nonzero"/></clipPath></defs><g clip-path="url(#id1)"><path fill="#000000" d="M 361.238281 12.894531 C 355.449219 6.523438 347.339844 3.046875 338.652344 3.046875 C 329.964844 3.046875 321.859375 6.523438 316.066406 12.316406 L 215.296875 113.109375 L 187.5 85.304688 C 181.128906 78.933594 173.023438 76.035156 164.914062 76.035156 C 156.804688 76.035156 148.117188 79.511719 142.328125 85.304688 L 131.902344 95.730469 C 129.585938 93.992188 126.113281 93.992188 123.796875 95.730469 L 100.050781 119.480469 C 98.894531 120.640625 98.3125 121.800781 98.3125 123.535156 C 98.3125 124.695312 98.894531 126.433594 100.050781 127.589844 L 2.757812 224.332031 C 1.019531 226.070312 0.441406 227.808594 1.019531 230.125 C 1.597656 231.863281 3.335938 233.597656 5.074219 234.179688 L 35.769531 241.710938 L 46.191406 275.308594 C 46.191406 275.886719 46.769531 277.046875 47.351562 277.625 C 47.929688 278.203125 48.507812 278.78125 49.667969 278.78125 L 83.257812 289.210938 L 93.679688 322.808594 C 93.679688 323.386719 94.261719 324.546875 94.839844 325.125 C 95.417969 325.703125 95.996094 326.285156 97.15625 326.285156 L 130.746094 336.710938 L 138.851562 367.992188 C 139.433594 369.730469 141.167969 371.46875 142.90625 372.046875 L 144.644531 372.046875 C 146.382812 372.046875 147.539062 371.46875 148.699219 370.308594 L 245.992188 272.992188 C 247.152344 274.148438 248.308594 274.726562 249.46875 274.726562 C 251.203125 274.726562 252.363281 274.148438 253.519531 272.992188 L 277.265625 249.238281 C 278.421875 248.082031 279.003906 246.921875 279.003906 245.183594 C 279.003906 244.027344 278.421875 242.289062 277.84375 241.128906 L 287.691406 231.28125 C 294.058594 224.910156 296.957031 216.800781 296.957031 208.691406 C 296.957031 200.582031 293.480469 191.890625 287.691406 186.097656 L 261.628906 159.453125 L 361.816406 59.238281 C 374.558594 46.492188 374.558594 26.21875 361.816406 13.472656 Z M 108.160156 135.703125 L 121.480469 149.023438 L 39.242188 230.703125 L 18.394531 225.488281 Z M 169.546875 196.527344 L 87.308594 278.78125 L 62.988281 271.253906 L 153.332031 180.886719 Z M 217.613281 244.605469 L 135.378906 326.863281 L 111.054688 319.332031 L 201.976562 228.964844 Z M 102.945312 311.222656 L 95.417969 286.894531 L 177.65625 204.636719 L 193.292969 220.277344 Z M 54.878906 263.144531 L 47.351562 238.8125 L 129.585938 156.554688 L 145.222656 172.195312 Z M 149.277344 356.40625 L 143.484375 334.972656 L 225.722656 252.714844 L 239.042969 266.039062 Z M 287.109375 210.429688 C 287.109375 216.222656 284.792969 221.433594 281.320312 224.910156 L 267.421875 238.8125 C 266.261719 239.972656 265.683594 241.128906 265.683594 242.867188 C 265.683594 244.027344 266.261719 245.765625 266.839844 246.921875 L 251.203125 262.5625 L 229.777344 240.550781 L 206.03125 216.800781 L 157.964844 168.71875 L 112.792969 123.535156 L 128.429688 107.894531 L 237.304688 217.378906 C 238.464844 218.539062 240.199219 219.117188 241.359375 219.117188 C 242.515625 219.117188 244.253906 218.539062 245.414062 217.378906 C 247.730469 215.0625 247.730469 211.585938 245.414062 209.269531 L 140.011719 103.839844 L 149.855469 93.992188 C 157.386719 86.464844 171.285156 86.464844 179.390625 93.992188 L 280.738281 195.367188 C 284.792969 199.421875 287.109375 204.636719 287.109375 210.429688 Z M 353.710938 51.125 L 253.519531 151.34375 L 223.40625 121.21875 L 323.59375 21.003906 C 331.125 13.472656 345.023438 13.472656 353.132812 21.003906 L 353.710938 21.582031 C 361.816406 29.695312 361.816406 43.015625 353.710938 51.125 Z M 353.710938 51.125 " fill-opacity="1" fill-rule="nonzero"/></g><path fill="#000000" d="M 333.441406 33.75 C 332.28125 34.90625 331.703125 36.066406 331.703125 37.804688 C 331.703125 39.542969 332.28125 40.699219 333.441406 41.859375 C 334.597656 43.015625 335.757812 43.597656 337.496094 43.597656 C 339.230469 43.597656 340.390625 43.015625 341.546875 41.859375 C 342.707031 40.699219 343.285156 39.542969 343.285156 37.804688 C 343.285156 36.066406 342.707031 34.90625 341.546875 33.75 C 339.230469 31.429688 335.757812 31.429688 333.441406 33.75 Z M 333.441406 33.75 " fill-opacity="1" fill-rule="nonzero"/></svg>