<svg xmlns="http://www.w3.org/2000/svg" xmlns:xlink="http://www.w3.org/1999/xlink" width="500" zoomAndPan="magnify" viewBox="0 0 375 374.999991" height="500" preserveAspectRatio="xMidYMid meet" version="1.0"><defs><clipPath id="id1"><path d="M 41.015625 0 L 334.265625 0 L 334.265625 375 L 41.015625 375 Z M 41.015625 0 " clip-rule="nonzero"/></clipPath></defs><path fill="#4c69f6" d="M 184.234375 120.230469 C 203.65625 122.121094 220.925781 107.910156 222.804688 88.503906 C 224.6875 69.101562 210.46875 51.847656 191.050781 49.96875 C 171.636719 48.085938 154.355469 62.289062 152.476562 81.695312 C 150.59375 101.101562 164.8125 118.355469 184.234375 120.230469 Z M 158.339844 82.265625 C 159.898438 66.121094 174.320312 54.257812 190.484375 55.824219 C 206.636719 57.390625 218.515625 71.792969 216.945312 87.941406 C 215.375 104.082031 200.960938 115.941406 184.800781 114.382812 C 168.644531 112.816406 156.773438 98.40625 158.339844 82.265625 Z M 158.339844 82.265625 " fill-opacity="1" fill-rule="nonzero"/><path fill="#4c69f6" d="M 184.261719 101.160156 L 188.449219 101.566406 L 188.871094 97.222656 C 193.808594 96.886719 196.742188 93.933594 197.113281 90.171875 C 197.484375 86.324219 195.726562 83.8125 190.859375 81.542969 C 187.355469 79.886719 185.960938 78.8125 186.09375 77.457031 C 186.207031 76.277344 187.21875 75.140625 189.960938 75.40625 C 193.011719 75.699219 194.902344 76.867188 195.910156 77.472656 L 197.640625 72.824219 C 196.226562 72 194.386719 71.1875 191.605469 70.832031 L 191.964844 67.117188 L 187.824219 66.710938 L 187.433594 70.730469 C 182.824219 71.128906 179.917969 73.789062 179.554688 77.546875 C 179.15625 81.648438 182.039062 84.058594 186.414062 86.019531 C 189.484375 87.386719 190.738281 88.527344 190.585938 90.132812 C 190.425781 91.78125 188.683594 92.589844 186.230469 92.355469 C 183.476562 92.089844 181.078125 90.957031 179.394531 89.820312 L 177.640625 94.636719 C 179.15625 95.679688 181.832031 96.75 184.652344 97.15625 Z M 184.261719 101.160156 " fill-opacity="1" fill-rule="nonzero"/><path fill="#4c69f6" d="M 93.800781 152.34375 L 281.480469 152.34375 C 283.101562 152.34375 284.414062 151.035156 284.414062 149.414062 C 284.414062 147.792969 283.101562 146.484375 281.480469 146.484375 L 93.800781 146.484375 C 92.179688 146.484375 90.867188 147.792969 90.867188 149.414062 C 90.867188 151.035156 92.179688 152.34375 93.800781 152.34375 Z M 93.800781 152.34375 " fill-opacity="1" fill-rule="nonzero"/><path fill="#4c69f6" d="M 281.480469 187.5 L 93.800781 187.5 C 92.179688 187.5 90.867188 188.808594 90.867188 190.429688 C 90.867188 192.050781 92.179688 193.359375 93.800781 193.359375 L 281.480469 193.359375 C 283.101562 193.359375 284.414062 192.050781 284.414062 190.429688 C 284.414062 188.808594 283.101562 187.5 281.480469 187.5 Z M 281.480469 187.5 " fill-opacity="1" fill-rule="nonzero"/><path fill="#4c69f6" d="M 281.480469 228.515625 L 93.800781 228.515625 C 92.179688 228.515625 90.867188 229.824219 90.867188 231.445312 C 90.867188 233.066406 92.179688 234.375 93.800781 234.375 L 281.480469 234.375 C 283.101562 234.375 284.414062 233.066406 284.414062 231.445312 C 284.414062 229.824219 283.101562 228.515625 281.480469 228.515625 Z M 281.480469 228.515625 " fill-opacity="1" fill-rule="nonzero"/><path fill="#4c69f6" d="M 281.480469 269.53125 L 93.800781 269.53125 C 92.179688 269.53125 90.867188 270.839844 90.867188 272.460938 C 90.867188 274.082031 92.179688 275.390625 93.800781 275.390625 L 281.480469 275.390625 C 283.101562 275.390625 284.414062 274.082031 284.414062 272.460938 C 284.414062 270.839844 283.101562 269.53125 281.480469 269.53125 Z M 281.480469 269.53125 " fill-opacity="1" fill-rule="nonzero"/><path fill="#4c69f6" d="M 281.480469 310.546875 L 93.800781 310.546875 C 92.179688 310.546875 90.867188 311.855469 90.867188 313.476562 C 90.867188 315.097656 92.179688 316.40625 93.800781 316.40625 L 281.480469 316.40625 C 283.101562 316.40625 284.414062 315.097656 284.414062 313.476562 C 284.414062 311.855469 283.101562 310.546875 281.480469 310.546875 Z M 281.480469 310.546875 " fill-opacity="1" fill-rule="nonzero"/><g clip-path="url(#id1)"><path fill="#4c69f6" d="M 310.804688 0 L 64.476562 0 C 51.519531 0 41.015625 10.492188 41.015625 23.4375 L 41.015625 351.5625 C 41.015625 364.503906 51.519531 375 64.476562 375 L 302.007812 375 L 334.265625 342.773438 L 334.265625 23.4375 C 334.265625 10.492188 323.761719 0 310.804688 0 Z M 52.746094 351.5625 L 52.746094 23.4375 C 52.746094 16.976562 58.007812 11.71875 64.476562 11.71875 L 310.804688 11.71875 C 317.273438 11.71875 322.535156 16.976562 322.535156 23.4375 L 322.535156 333.984375 L 299.074219 333.984375 C 294.214844 333.984375 290.277344 337.917969 290.277344 342.773438 L 290.277344 363.28125 L 64.476562 363.28125 C 58.007812 363.28125 52.746094 358.027344 52.746094 351.5625 Z M 52.746094 351.5625 " fill-opacity="1" fill-rule="nonzero"/></g></svg>