<svg xmlns="http://www.w3.org/2000/svg" xmlns:xlink="http://www.w3.org/1999/xlink" width="500" zoomAndPan="magnify" viewBox="0 0 375 374.999991" height="500" preserveAspectRatio="xMidYMid meet" version="1.0"><defs><clipPath id="id1"><path d="M 12.421875 0 L 362.671875 0 L 362.671875 375 L 12.421875 375 Z M 12.421875 0 " clip-rule="nonzero"/></clipPath></defs><g clip-path="url(#id1)"><path fill="#100f0d" d="M 25.003906 143.75 L 75.015625 143.75 L 75.015625 156.25 L 25.003906 156.25 Z M 56.261719 87.5 L 131.28125 87.5 L 131.28125 131.25 L 56.261719 131.25 Z M 81.269531 12.5 L 106.273438 12.5 L 106.273438 43.75 L 81.269531 43.75 Z M 78.019531 56.25 L 109.523438 56.25 L 124.515625 75 L 63.027344 75 Z M 168.792969 102.585938 L 183.882812 87.5 L 216.214844 87.5 L 243.8125 115.085938 L 243.8125 131.25 L 168.792969 131.25 Z M 212.554688 62.5 L 212.554688 75 L 187.546875 75 L 187.546875 62.5 Z M 212.554688 12.5 L 243.8125 12.5 L 243.8125 28.246094 L 216.605469 50 L 169.230469 50 C 172.285156 28.832031 190.550781 12.5 212.554688 12.5 Z M 268.820312 25 L 256.316406 25 L 256.316406 12.5 L 268.820312 12.5 Z M 275.070312 156.25 L 187.546875 156.25 L 187.546875 143.75 L 275.070312 143.75 Z M 162.539062 143.75 L 175.042969 143.75 L 175.042969 187.5 C 175.042969 189.867188 176.386719 192.039062 178.488281 193.089844 L 216.046875 211.863281 C 217.878906 212.769531 219.246094 214.355469 219.878906 216.308594 C 220.539062 218.261719 220.367188 220.386719 219.292969 222.582031 C 217.460938 226.195312 213.089844 227.660156 209.476562 225.855469 L 184.105469 213.160156 C 182.148438 212.207031 179.855469 212.304688 178 213.425781 C 176.167969 214.574219 175.042969 216.578125 175.042969 218.75 L 175.042969 281.25 C 175.042969 288.132812 169.425781 293.75 162.539062 293.75 L 162.539062 237.5 L 150.035156 237.5 L 150.035156 293.75 L 137.535156 293.75 L 137.535156 237.5 L 125.03125 237.5 L 125.03125 293.75 L 112.527344 293.75 L 112.527344 237.5 L 100.023438 237.5 L 100.023438 293.75 C 93.136719 293.75 87.519531 288.132812 87.519531 281.25 L 87.519531 143.75 Z M 243.347656 262.5 L 237.558594 262.5 C 216.875 262.5 200.050781 279.320312 200.050781 300 L 200.050781 337.5 C 200.050781 341.894531 200.855469 346.09375 202.25 350 L 68.007812 350 L 44.613281 168.75 L 75.015625 168.75 L 75.015625 281.25 C 75.015625 295.042969 86.226562 306.25 100.023438 306.25 L 162.539062 306.25 C 176.335938 306.25 187.546875 295.042969 187.546875 281.25 L 187.546875 228.855469 L 203.882812 237.035156 C 213.628906 241.917969 225.570312 237.9375 230.625 227.855469 C 233.042969 222.996094 233.457031 217.503906 231.773438 212.378906 C 230.0625 207.25 226.472656 203.101562 221.636719 200.683594 L 187.546875 183.640625 L 187.546875 168.75 L 255.460938 168.75 Z M 301.101562 278.34375 C 305.5 276.148438 310.40625 275 315.289062 275 L 325.082031 275 C 338.882812 275 350.089844 286.207031 350.089844 300 C 350.089844 313.792969 338.882812 325 325.082031 325 L 315.289062 325 C 310.40625 325 305.5 323.851562 301.101562 321.65625 C 294.898438 318.554688 288.109375 317.015625 281.320312 317.015625 C 274.53125 317.015625 267.742188 318.554688 261.542969 321.65625 C 257.144531 323.851562 252.238281 325 247.351562 325 L 237.558594 325 C 223.761719 325 212.554688 313.792969 212.554688 300 C 212.554688 286.207031 223.761719 275 237.558594 275 L 247.351562 275 C 252.238281 275 257.144531 276.148438 261.542969 278.34375 C 273.921875 284.546875 288.722656 284.546875 301.101562 278.34375 Z M 325.082031 362.5 L 315.289062 362.5 C 310.40625 362.5 305.5 361.328125 301.101562 359.15625 C 294.898438 356.054688 288.109375 354.515625 281.320312 354.515625 C 274.53125 354.515625 267.742188 356.054688 261.542969 359.15625 C 257.144531 361.328125 252.238281 362.5 247.351562 362.5 L 237.558594 362.5 C 223.761719 362.5 212.554688 351.292969 212.554688 337.5 L 212.554688 327.878906 C 219.195312 333.835938 227.9375 337.5 237.558594 337.5 L 247.351562 337.5 C 254.191406 337.5 261.027344 335.886719 267.132812 332.835938 C 276.023438 328.394531 286.621094 328.394531 295.511719 332.835938 C 301.617188 335.886719 308.453125 337.5 315.289062 337.5 L 325.082031 337.5 C 334.707031 337.5 343.449219 333.835938 350.089844 327.878906 L 350.089844 337.5 C 350.089844 351.292969 338.882812 362.5 325.082031 362.5 Z M 18.75 168.75 L 32.011719 168.75 L 56.3125 357.054688 C 56.726562 360.15625 59.363281 362.5 62.511719 362.5 L 209.671875 362.5 C 216.558594 370.140625 226.496094 375 237.558594 375 L 247.351562 375 C 254.191406 375 261.027344 373.386719 267.132812 370.335938 C 276.023438 365.894531 286.621094 365.894531 295.511719 370.335938 C 301.617188 373.386719 308.453125 375 315.289062 375 L 325.082031 375 C 345.769531 375 362.59375 358.179688 362.59375 337.5 L 362.59375 300 C 362.59375 279.320312 345.769531 262.5 325.082031 262.5 L 315.289062 262.5 C 308.453125 262.5 301.617188 264.109375 295.511719 267.164062 C 286.621094 271.605469 276.023438 271.605469 267.132812 267.164062 C 263.566406 265.378906 259.757812 264.160156 255.851562 263.402344 L 268.0625 168.75 L 281.320312 168.75 C 284.765625 168.75 287.574219 165.941406 287.574219 162.5 L 287.574219 137.5 C 287.574219 134.058594 284.765625 131.25 281.320312 131.25 L 256.316406 131.25 L 256.316406 112.5 C 256.316406 110.839844 255.65625 109.253906 254.484375 108.082031 L 225.058594 78.660156 L 225.058594 59.253906 L 234.53125 51.683594 L 250.722656 84.058594 L 261.90625 78.441406 L 244.519531 43.675781 L 252.261719 37.5 L 275.070312 37.5 C 278.511719 37.5 281.320312 34.691406 281.320312 31.25 L 281.320312 6.25 C 281.320312 2.808594 278.511719 0 275.070312 0 L 212.554688 0 C 181.539062 0 156.289062 25.242188 156.289062 56.25 C 156.289062 59.691406 159.097656 62.5 162.539062 62.5 L 175.042969 62.5 L 175.042969 78.660156 L 158.121094 95.582031 C 156.949219 96.753906 156.289062 98.339844 156.289062 100 L 156.289062 131.25 L 143.785156 131.25 L 143.785156 81.25 C 143.785156 80.46875 143.613281 79.710938 143.320312 79.003906 C 143.222656 78.734375 143.078125 78.539062 142.929688 78.296875 C 142.757812 77.976562 142.636719 77.636719 142.417969 77.34375 L 118.777344 47.804688 L 118.777344 6.25 C 118.777344 2.808594 115.96875 0 112.527344 0 L 75.015625 0 C 71.574219 0 68.765625 2.808594 68.765625 6.25 L 68.765625 47.804688 L 45.125 77.34375 C 44.90625 77.636719 44.785156 77.976562 44.613281 78.296875 C 44.464844 78.539062 44.320312 78.734375 44.222656 79.003906 C 43.929688 79.710938 43.757812 80.46875 43.757812 81.25 L 43.757812 131.25 L 18.75 131.25 C 15.308594 131.25 12.5 134.058594 12.5 137.5 L 12.5 162.5 C 12.5 165.941406 15.308594 168.75 18.75 168.75 " fill-opacity="1" fill-rule="nonzero"/></g><path fill="#100f0d" d="M 331.335938 287.5 L 318.832031 287.5 L 318.832031 300 L 331.335938 300 L 331.335938 287.5 " fill-opacity="1" fill-rule="nonzero"/><path fill="#100f0d" d="M 268.820312 287.5 L 256.316406 287.5 L 256.316406 300 L 268.820312 300 L 268.820312 287.5 " fill-opacity="1" fill-rule="nonzero"/><path fill="#100f0d" d="M 231.308594 306.25 L 243.8125 306.25 L 243.8125 293.75 L 231.308594 293.75 L 231.308594 306.25 " fill-opacity="1" fill-rule="nonzero"/><path fill="#100f0d" d="M 306.328125 293.75 L 293.824219 293.75 L 293.824219 306.25 L 306.328125 306.25 L 306.328125 293.75 " fill-opacity="1" fill-rule="nonzero"/></svg>