<svg xmlns="http://www.w3.org/2000/svg" xmlns:xlink="http://www.w3.org/1999/xlink" width="500" zoomAndPan="magnify" viewBox="0 0 375 374.999991" height="500" preserveAspectRatio="xMidYMid meet" version="1.0"><defs><clipPath id="id1"><path d="M 23.4375 0 L 351.9375 0 L 351.9375 375 L 23.4375 375 Z M 23.4375 0 " clip-rule="nonzero"/></clipPath></defs><g clip-path="url(#id1)"><path fill="#4c69f6" d="M 170.269531 196.878906 L 233.097656 134.121094 C 235.960938 131.261719 240.605469 131.261719 243.46875 134.121094 C 246.332031 136.980469 246.332031 141.621094 243.46875 144.480469 L 174.808594 213.0625 C 173.429688 214.4375 171.5625 215.207031 169.625 215.207031 C 169.484375 215.207031 169.339844 215.203125 169.195312 215.195312 C 167.105469 215.070312 165.167969 214.0625 163.871094 212.421875 L 131.410156 171.378906 C 128.902344 168.207031 129.441406 163.597656 132.617188 161.089844 C 135.796875 158.582031 140.410156 159.125 142.917969 162.296875 Z M 187.722656 73.410156 C 243.027344 73.410156 288.015625 118.351562 288.015625 173.589844 C 288.015625 228.828125 243.027344 273.769531 187.722656 273.769531 C 132.421875 273.769531 87.429688 228.828125 87.429688 173.589844 C 87.429688 118.351562 132.421875 73.410156 187.722656 73.410156 Z M 187.722656 88.058594 C 140.507812 88.058594 102.097656 126.429688 102.097656 173.589844 C 102.097656 220.75 140.507812 259.121094 187.722656 259.121094 C 234.941406 259.121094 273.351562 220.753906 273.351562 173.589844 C 273.351562 126.429688 234.941406 88.058594 187.722656 88.058594 Z M 351.804688 50.5 L 351.804688 187.296875 C 351.804688 209.378906 346.492188 231.605469 336.015625 253.371094 C 326.628906 272.871094 313.335938 291.570312 296.507812 308.949219 C 266.070312 340.382812 226.113281 364.984375 189.621094 374.75 C 189 374.917969 188.363281 375 187.722656 375 C 187.085938 375 186.449219 374.917969 185.828125 374.75 C 149.332031 364.984375 109.375 340.386719 78.941406 308.949219 C 62.113281 291.570312 48.820312 272.871094 39.433594 253.371094 C 28.957031 231.609375 23.644531 209.378906 23.644531 187.296875 L 23.644531 50.5 C 23.644531 46.683594 26.582031 43.503906 30.394531 43.199219 C 75.472656 39.617188 113.542969 18.472656 137.542969 1.363281 C 138.785156 0.476562 140.277344 0 141.804688 0 L 233.644531 0 C 235.171875 0 236.660156 0.476562 237.90625 1.363281 C 261.90625 18.472656 299.976562 39.617188 345.054688 43.199219 C 348.867188 43.503906 351.804688 46.683594 351.804688 50.5 Z M 337.140625 57.140625 C 301.605469 52.996094 265.207031 38.394531 231.3125 14.648438 L 144.136719 14.648438 C 110.242188 38.394531 73.84375 52.996094 38.308594 57.140625 L 38.308594 187.296875 C 38.308594 271.9375 125.964844 342.597656 187.726562 360.078125 C 249.484375 342.59375 337.140625 271.9375 337.140625 187.296875 Z M 337.140625 57.140625 " fill-opacity="1" fill-rule="nonzero"/></g></svg>