<svg xmlns="http://www.w3.org/2000/svg" xmlns:xlink="http://www.w3.org/1999/xlink" width="500" zoomAndPan="magnify" viewBox="0 0 375 374.999991" height="500" preserveAspectRatio="xMidYMid meet" version="1.0"><path fill="#1f2122" d="M 367.917969 274.527344 C 366.851562 274.617188 262.484375 282.871094 199.109375 268.953125 C 190.703125 267.09375 185.34375 269.621094 172.339844 275.804688 C 162.867188 280.28125 148.554688 287.074219 124.648438 296.390625 C 71.230469 317.222656 42.484375 318.378906 37.703125 310.25 C 33.195312 302.636719 43.367188 268.921875 55.394531 242.03125 C 56.707031 239.109375 55.394531 235.636719 52.472656 234.328125 C 49.519531 232.984375 46.046875 234.328125 44.738281 237.25 C 43.945312 238.984375 42.636719 241.96875 41.082031 245.714844 C 27.378906 236.214844 11.695312 221.992188 11.664062 213.464844 C 12.578125 209.597656 25.976562 197.996094 41.328125 187.546875 C 41.601562 188.554688 41.8125 189.40625 41.875 189.894531 C 41.90625 190.988281 41.082031 194.917969 40.503906 197.507812 C 38.738281 205.820312 37.761719 211.121094 39.074219 215.046875 C 40.871094 220.378906 46.410156 222.265625 50.460938 223.667969 C 51.042969 223.878906 51.800781 224.125 52.382812 224.335938 C 53.933594 227.808594 57.191406 233.472656 59.507812 237.3125 C 59.84375 238.742188 60.632812 241.664062 61.699219 244.679688 C 63.253906 249.15625 66.90625 252.628906 71.445312 253.9375 C 72.847656 254.363281 74.214844 254.578125 75.617188 254.578125 C 78.816406 254.578125 81.921875 253.511719 84.511719 251.472656 C 86.09375 250.253906 88.105469 248.578125 90.355469 246.628906 L 86.308594 261.828125 C 85.757812 263.898438 86.398438 266.089844 87.921875 267.550781 C 89.015625 268.617188 90.480469 269.195312 91.972656 269.195312 C 92.550781 269.195312 93.128906 269.105469 93.707031 268.921875 C 94.558594 268.648438 114.78125 262.28125 134.789062 249.066406 C 163.355469 230.183594 167.925781 210.054688 168.105469 209.203125 C 168.777344 206.066406 166.796875 203.019531 163.660156 202.320312 C 160.523438 201.648438 157.417969 203.597656 156.6875 206.703125 C 156.6875 206.796875 155.742188 210.390625 152.363281 215.808594 L 128.882812 218.035156 C 125.652344 218.308594 123.308594 221.171875 123.613281 224.398438 C 123.886719 227.414062 126.445312 229.695312 129.429688 229.695312 C 129.613281 229.695312 129.796875 229.667969 129.976562 229.667969 L 141.855469 228.539062 C 138.230469 232.042969 133.847656 235.695312 128.332031 239.320312 C 118.222656 245.988281 107.898438 250.863281 100.527344 253.910156 L 106.40625 231.828125 C 116.214844 222.234375 125.320312 212.308594 126.171875 208.5 C 128.457031 198.328125 124.558594 189.011719 124.101562 188.003906 C 122.820312 185.050781 119.351562 183.742188 116.425781 184.992188 C 113.472656 186.269531 112.132812 189.710938 113.378906 192.695312 C 113.410156 192.757812 116.089844 199.058594 114.871094 205.394531 C 112.101562 209.871094 90.964844 231.675781 77.351562 242.246094 C 76.347656 243.035156 75.28125 242.882812 74.734375 242.730469 C 74.308594 242.609375 73.179688 242.152344 72.722656 240.8125 C 71.476562 237.25 70.683594 233.871094 70.652344 233.777344 C 70.53125 233.167969 70.289062 232.589844 69.984375 232.074219 C 66.90625 226.621094 65.109375 223.121094 62.917969 219.25 C 60.726562 215.414062 57.742188 213.800781 54.238281 212.582031 C 53.082031 212.214844 51.070312 211.515625 50.15625 210.96875 C 50.097656 208.683594 51.285156 203.082031 51.953125 199.972656 C 53.082031 194.707031 53.75 191.386719 53.507812 188.859375 C 53.203125 185.507812 51.496094 180.789062 47.753906 170.433594 C 45.679688 164.675781 43 157.339844 39.773438 147.957031 C 39.4375 146.953125 39.195312 145.917969 38.949219 144.914062 C 49.761719 150.820312 66.480469 150.636719 83.902344 149.054688 C 102.449219 147.410156 128.914062 146.039062 144.230469 153.316406 C 145.023438 153.714844 145.90625 153.898438 146.726562 153.898438 C 148.921875 153.898438 151.023438 152.648438 152.027344 150.546875 C 153.398438 147.625 152.179688 144.152344 149.253906 142.75 C 135.429688 136.203125 114.964844 134.527344 82.835938 137.421875 C 43.609375 140.921875 39.378906 132.792969 38.585938 124.875 C 37.429688 113.851562 51.558594 99.078125 57.070312 94.359375 C 57.953125 93.597656 58.59375 92.59375 58.898438 91.496094 C 58.929688 91.375 62.554688 78.886719 74.796875 73.648438 C 83.902344 69.753906 91.394531 68.992188 95.261719 68.867188 C 98.457031 73.925781 106.132812 82.664062 122.882812 87.050781 C 152.421875 94.753906 156.839844 102.277344 157.476562 104.410156 C 158.605469 108.183594 158.695312 112.023438 158.453125 115.097656 C 154.25 113.148438 150.015625 111.839844 146.789062 110.863281 C 138.199219 108.246094 129.671875 107.179688 117.886719 105.6875 C 110.824219 104.804688 102.507812 103.769531 92.335938 102.15625 C 83.199219 100.695312 75.433594 98.226562 69.832031 95.027344 C 67 93.414062 63.464844 94.390625 61.882812 97.191406 C 60.269531 99.992188 61.242188 103.585938 64.015625 105.171875 C 70.925781 109.128906 79.851562 111.992188 90.480469 113.667969 C 100.832031 115.34375 109.238281 116.40625 116.425781 117.292969 C 127.632812 118.722656 135.765625 119.757812 143.410156 122.042969 C 157.113281 126.183594 162.441406 129.960938 163.050781 135.960938 C 164.179688 146.984375 153.914062 154.660156 153.824219 154.71875 C 152.210938 155.875 151.296875 157.824219 151.417969 159.835938 C 151.539062 161.84375 152.695312 163.671875 154.464844 164.617188 L 167.496094 171.621094 C 168.351562 172.078125 169.324219 172.320312 170.300781 172.320312 C 170.574219 172.320312 170.847656 172.320312 171.152344 172.261719 L 187.476562 169.855469 C 190.703125 169.398438 192.894531 166.414062 192.410156 163.214844 C 191.953125 160.019531 189.027344 157.855469 185.800781 158.28125 L 171.335938 160.414062 L 167.011719 158.070312 C 171.214844 152.984375 175.75 144.972656 174.683594 134.773438 C 174.167969 129.714844 172.003906 125.847656 169.140625 122.679688 C 169.964844 118.964844 171.394531 110.105469 168.683594 101.027344 C 165.546875 90.703125 151.507812 82.421875 125.835938 75.722656 C 115.785156 73.101562 110.273438 68.777344 107.289062 65.457031 C 112.894531 63.203125 122 60.554688 131.105469 62.414062 C 143.925781 65.03125 147.09375 72.003906 148.34375 77 C 149.132812 80.136719 152.332031 82.085938 155.40625 81.265625 C 158.574219 80.472656 160.460938 77.304688 159.671875 74.167969 C 156.566406 61.683594 147.734375 53.886719 133.449219 50.960938 C 117.460938 47.703125 102.296875 54.554688 97.363281 57.144531 C 93.191406 57.054688 82.804688 57.480469 70.195312 62.898438 C 55.914062 69.019531 50.003906 81.8125 48.238281 86.5625 C 42.941406 91.34375 25.1875 108.824219 26.953125 126.0625 C 26.980469 126.519531 27.105469 126.914062 27.164062 127.339844 C 27.074219 127.613281 26.921875 127.796875 26.859375 128.101562 C 25.429688 136.050781 26.070312 144.03125 28.71875 151.765625 C 31.976562 161.207031 34.65625 168.605469 36.757812 174.390625 C 36.972656 175 37.152344 175.488281 37.367188 176.066406 C 22.628906 185.8125 0 202.53125 0 213.191406 C 0 230.582031 25.398438 249.371094 36.695312 256.863281 C 29.265625 276.6875 20.859375 304.734375 27.621094 316.1875 C 31.976562 323.585938 41.144531 326.480469 52.960938 326.480469 C 74.0625 326.480469 103.574219 317.160156 128.914062 307.292969 C 153.214844 297.824219 167.742188 290.910156 177.335938 286.371094 C 189.515625 280.585938 192.226562 279.398438 196.613281 280.371094 C 261.722656 294.6875 364.503906 286.523438 368.828125 286.160156 C 372.058594 285.914062 374.464844 283.082031 374.191406 279.886719 C 373.945312 276.65625 371.054688 274.28125 367.917969 274.527344 " fill-opacity="1" fill-rule="nonzero"/><path fill="#1f2122" d="M 182.632812 206.125 C 183.820312 207.984375 186.410156 210.601562 191.617188 210.601562 C 193.046875 210.601562 194.691406 210.417969 196.582031 209.933594 C 206.753906 207.3125 218.691406 199.640625 226.304688 194.1875 C 226.761719 196.289062 227.765625 198.269531 229.320312 199.945312 C 233.917969 204.816406 241.441406 205.183594 246.40625 200.675781 C 268.847656 180.484375 269.457031 177.925781 269.945312 175.855469 C 270.644531 173.023438 271.253906 169.824219 271.804688 166.902344 L 314.652344 167.84375 C 314.714844 167.84375 314.742188 167.84375 314.804688 167.84375 C 317.972656 167.84375 320.558594 165.316406 320.652344 162.121094 C 320.710938 158.890625 318.15625 156.210938 314.925781 156.152344 L 277.863281 155.328125 L 372.515625 60.039062 C 374.800781 57.753906 374.800781 54.039062 372.484375 51.785156 C 370.199219 49.5 366.515625 49.53125 364.230469 51.816406 L 263.335938 153.378906 C 262.484375 154.261719 261.90625 155.390625 261.722656 156.605469 C 261.691406 156.699219 260.320312 165.683594 258.738281 172.445312 C 257.460938 174.179688 252.039062 179.875 238.578125 191.996094 L 237.816406 191.265625 L 250.820312 173.996094 C 252.617188 171.621094 252.34375 168.269531 250.210938 166.230469 C 248.050781 164.191406 244.699219 164.097656 242.414062 166.019531 L 226.425781 179.386719 C 226.242188 179.570312 207.179688 195.132812 193.65625 198.605469 C 193.324219 198.695312 193.019531 198.753906 192.746094 198.785156 C 193.382812 195.316406 196.917969 187.335938 204.804688 177.53125 C 216.316406 163.246094 240.160156 153.957031 240.40625 153.867188 C 241.441406 153.46875 242.382812 152.769531 243.054688 151.855469 L 308.164062 61.710938 C 310.054688 59.0625 309.445312 55.4375 306.824219 53.519531 C 304.207031 51.632812 300.550781 52.242188 298.664062 54.859375 L 234.558594 143.632812 C 228.4375 146.160156 207.394531 155.664062 195.699219 170.191406 C 190.976562 176.066406 176.085938 195.984375 182.632812 206.125 " fill-opacity="1" fill-rule="nonzero"/><path fill="#1f2122" d="M 364.382812 130.902344 L 315.382812 176.492188 L 303.535156 175.125 C 295.375 174.179688 287 176.160156 280.117188 180.636719 C 247.011719 202.289062 245.550781 209.597656 246.769531 214.746094 C 248.109375 220.410156 252.648438 227.167969 261.265625 229.148438 C 264.492188 229.910156 269.277344 230.152344 274.085938 230.152344 C 278.867188 230.152344 283.679688 229.910156 286.9375 229.636719 C 315.078125 227.414062 329.117188 214.867188 332.46875 211.457031 L 371.328125 188.890625 C 374.097656 187.273438 375.042969 183.679688 373.429688 180.878906 C 371.816406 178.109375 368.25 177.164062 365.417969 178.777344 L 325.859375 201.769531 C 325.3125 202.105469 324.792969 202.53125 324.367188 202.988281 C 323.910156 203.539062 312.765625 215.839844 285.996094 217.972656 C 278.382812 218.582031 268.058594 218.734375 263.886719 217.757812 C 260.414062 216.96875 258.980469 214.347656 258.433594 212.917969 C 259.46875 211.210938 264.371094 204.9375 286.542969 190.441406 C 291.109375 187.425781 296.652344 186.117188 302.226562 186.757812 L 316.722656 188.402344 C 318.429688 188.554688 320.132812 188.035156 321.382812 186.878906 L 372.363281 139.460938 C 374.738281 137.269531 374.859375 133.585938 372.636719 131.207031 C 370.472656 128.832031 366.757812 128.710938 364.382812 130.902344 " fill-opacity="1" fill-rule="nonzero"/></svg>