<svg xmlns="http://www.w3.org/2000/svg" xmlns:xlink="http://www.w3.org/1999/xlink" width="500" zoomAndPan="magnify" viewBox="0 0 375 374.999991" height="500" preserveAspectRatio="xMidYMid meet" version="1.0"><path fill="#000000" d="M 187.6875 187.5 C 135.875 187.5 93.839844 145.507812 93.839844 93.75 C 93.839844 41.992188 135.875 0 187.6875 0 C 239.5 0 281.535156 41.992188 281.535156 93.75 C 281.535156 145.507812 239.5 187.5 187.6875 187.5 Z M 187.6875 171.875 C 230.863281 171.875 265.894531 136.882812 265.894531 93.75 C 265.894531 50.617188 230.863281 15.625 187.6875 15.625 C 144.511719 15.625 109.480469 50.617188 109.480469 93.75 C 109.480469 136.882812 144.511719 171.875 187.6875 171.875 Z M 15.628906 367.1875 L 15.628906 335.9375 C 15.628906 272.703125 57.910156 218.75 140.761719 218.75 L 234.613281 218.75 C 317.464844 218.75 359.746094 272.703125 359.746094 335.9375 L 359.746094 367.1875 C 359.746094 371.5 356.242188 375 351.921875 375 L 23.453125 375 C 19.132812 375 15.628906 371.5 15.628906 367.1875 Z M 140.761719 234.375 C 67.523438 234.375 31.273438 280.679688 31.273438 335.9375 L 31.273438 359.375 L 344.101562 359.375 L 344.101562 335.9375 C 344.101562 280.679688 307.851562 234.375 234.613281 234.375 Z M 140.761719 234.375 " fill-opacity="1" fill-rule="evenodd"/></svg>