<svg xmlns="http://www.w3.org/2000/svg" xmlns:xlink="http://www.w3.org/1999/xlink" width="1000" zoomAndPan="magnify" viewBox="0 0 750 749.999995" height="1000" preserveAspectRatio="xMidYMid meet" version="1.0"><defs><clipPath id="id1"><path d="M 20.347656 12.183594 L 729.847656 12.183594 L 729.847656 738.183594 L 20.347656 738.183594 Z M 20.347656 12.183594 " clip-rule="nonzero"/></clipPath></defs><g clip-path="url(#id1)"><path fill="#000000" d="M 301.523438 12.183594 C 146.488281 12.183594 20.449219 138.25 20.449219 293.324219 C 20.449219 448.394531 146.488281 574.460938 301.523438 574.460938 C 362.902344 574.460938 419.558594 554.46875 465.828125 520.972656 L 683.21875 738.417969 L 729.976562 691.648438 L 514.589844 476.207031 C 556.863281 426.996094 582.59375 363.171875 582.59375 293.324219 C 582.59375 138.25 456.558594 12.183594 301.523438 12.183594 Z M 301.523438 45.257812 C 438.6875 45.257812 549.527344 156.125 549.527344 293.324219 C 549.527344 430.519531 438.6875 541.386719 301.523438 541.386719 C 164.359375 541.386719 53.519531 430.519531 53.519531 293.324219 C 53.519531 156.125 164.359375 45.257812 301.523438 45.257812 Z M 301.523438 45.257812 " fill-opacity="1" fill-rule="nonzero"/></g></svg>