<svg xmlns="http://www.w3.org/2000/svg" xmlns:xlink="http://www.w3.org/1999/xlink" width="500" zoomAndPan="magnify" viewBox="0 0 375 374.999991" height="500" preserveAspectRatio="xMidYMid meet" version="1.0"><defs><clipPath id="id1"><path d="M 326 46 L 349.546875 46 L 349.546875 64 L 326 64 Z M 326 46 " clip-rule="nonzero"/></clipPath></defs><path stroke-linecap="butt" transform="matrix(17.419353, 0, 0, 17.414314, -16.25957, -22.342484)" fill="none" stroke-linejoin="round" d="M 4.953957 4.433017 L 4.761104 4.433017 C 4.701006 4.433017 4.640907 4.435933 4.581033 4.441765 C 4.521383 4.447822 4.461957 4.45657 4.40298 4.468234 C 4.344003 4.479898 4.285923 4.494479 4.228291 4.511975 C 4.170884 4.529472 4.114374 4.54966 4.05876 4.572764 C 4.003147 4.595644 3.948879 4.62144 3.895956 4.649703 C 3.843034 4.677966 3.791457 4.708922 3.74145 4.742344 C 3.691667 4.775542 3.643453 4.811432 3.59681 4.849566 C 3.550391 4.887699 3.50599 4.928075 3.463382 4.97047 C 3.421 5.012865 3.380635 5.057503 3.342513 5.103936 C 3.304391 5.150369 3.268735 5.198596 3.235323 5.248618 C 3.20191 5.298415 3.170963 5.350007 3.142708 5.402945 C 3.114453 5.455883 3.088665 5.510166 3.065791 5.565796 C 3.042694 5.621201 3.022511 5.677728 3.00502 5.735376 C 2.987529 5.7928 2.972953 5.851121 2.961292 5.910116 C 2.949631 5.968885 2.940661 6.028328 2.934831 6.08822 C 2.929 6.147887 2.926085 6.208003 2.926085 6.267894 L 2.926085 8.251939 C 2.926085 8.312055 2.929 8.371946 2.934831 8.431838 C 2.940661 8.491729 2.949631 8.550948 2.961292 8.609942 C 2.972953 8.668936 2.987529 8.727257 3.00502 8.784681 C 3.022511 8.842105 3.042694 8.898632 3.065791 8.954262 C 3.088665 9.009667 3.114453 9.063951 3.142708 9.117113 C 3.170963 9.170051 3.20191 9.221418 3.235323 9.27144 C 3.268735 9.321462 3.304391 9.369689 3.342513 9.416121 C 3.380635 9.462554 3.421 9.506968 3.463382 9.549587 C 3.50599 9.591982 3.550391 9.632359 3.59681 9.670492 C 3.643453 9.708625 3.691667 9.744291 3.74145 9.777713 C 3.791457 9.811136 3.843034 9.842091 3.895956 9.870354 C 3.948879 9.898618 4.003147 9.924414 4.05876 9.947294 C 4.114374 9.970398 4.170884 9.990586 4.228291 10.008082 C 4.285923 10.025354 4.344003 10.039935 4.40298 10.051823 C 4.461957 10.063488 4.521383 10.072236 4.581033 10.078068 C 4.640907 10.084124 4.701006 10.08704 4.761104 10.08704 L 8.789938 10.08704 " stroke="#000000" stroke-width="1" stroke-opacity="1" stroke-miterlimit="4"/><path stroke-linecap="butt" transform="matrix(17.419353, 0, 0, 17.414314, -16.25957, -22.342484)" fill="none" stroke-linejoin="round" d="M 12.65395 13.700043 L 12.65395 11.923039 C 12.65395 11.862923 12.651035 11.803032 12.644981 11.74314 C 12.63915 11.683249 12.630404 11.62403 12.618519 11.565036 C 12.606858 11.506042 12.592282 11.447945 12.574791 11.390297 C 12.5573 11.332873 12.537117 11.276346 12.51402 11.220716 C 12.491147 11.165311 12.465358 11.111027 12.437103 11.05809 C 12.408623 11.004928 12.377902 10.95356 12.344489 10.903538 C 12.311076 10.853517 12.27542 10.805289 12.237298 10.758857 C 12.199176 10.712424 12.158812 10.66801 12.116204 10.625391 C 12.073822 10.582996 12.029421 10.542619 11.983001 10.504486 C 11.936358 10.466353 11.888369 10.430463 11.838362 10.39704 C 11.788354 10.363618 11.736777 10.332663 11.683855 10.304399 C 11.630932 10.276136 11.576664 10.25034 11.521051 10.227236 C 11.465662 10.204356 11.409151 10.183943 11.35152 10.166447 C 11.294112 10.148951 11.235808 10.13437 11.177055 10.122706 C 11.118078 10.110818 11.058652 10.102069 10.998778 10.096013 C 10.939128 10.090181 10.87903 10.08704 10.818931 10.08704 L 6.788079 10.08704 " stroke="#000000" stroke-width="1" stroke-opacity="1" stroke-miterlimit="4"/><g clip-path="url(#id1)"><path stroke-linecap="butt" transform="matrix(17.419353, 0, 0, 17.414314, -16.25957, -22.342484)" fill="none" stroke-linejoin="round" d="M 21.074003 4.433017 L 20.198989 4.433017 " stroke="#000000" stroke-width="1" stroke-opacity="1" stroke-miterlimit="4"/></g><path stroke-linecap="butt" transform="matrix(17.419353, 0, 0, 17.414314, -16.25957, -22.342484)" fill="none" stroke-linejoin="round" d="M 14.604906 21.277099 C 14.604681 21.308502 14.603112 21.339906 14.599748 21.37131 C 14.596384 21.402714 14.591675 21.433893 14.585172 21.464848 C 14.578893 21.495803 14.571044 21.52631 14.56185 21.556368 C 14.552432 21.58665 14.541668 21.616259 14.529558 21.645195 C 14.517449 21.674356 14.50377 21.702844 14.488745 21.730659 C 14.473945 21.758473 14.457575 21.785391 14.440083 21.811635 C 14.422368 21.837656 14.403531 21.863003 14.383573 21.887453 C 14.363391 21.911679 14.342311 21.935007 14.319887 21.957214 C 14.297686 21.979646 14.27414 22.000731 14.249921 22.020695 C 14.225478 22.040883 14.200138 22.059501 14.173901 22.076997 C 14.147664 22.094718 14.120755 22.110868 14.092948 22.125673 C 14.065141 22.140702 14.036662 22.154161 14.00751 22.166274 C 13.978357 22.178387 13.948757 22.189154 13.918483 22.19835 C 13.888434 22.207547 13.857712 22.215398 13.826766 22.221679 C 13.796044 22.22796 13.764874 22.23267 13.733479 22.235811 C 13.702084 22.239175 13.670465 22.240745 13.639071 22.24097 L 11.667933 22.24097 C 11.63609 22.241418 11.604023 22.240297 11.57218 22.237605 C 11.540336 22.234913 11.508717 22.230651 11.477323 22.224819 C 11.445928 22.218987 11.414758 22.211585 11.38426 22.202612 C 11.353538 22.193864 11.323265 22.183546 11.293664 22.171657 C 11.263839 22.159769 11.234911 22.146534 11.206432 22.13173 C 11.178176 22.116925 11.150594 22.100999 11.123684 22.083502 C 11.096999 22.066006 11.070986 22.047388 11.046094 22.027424 C 11.021203 22.00746 10.997208 21.986151 10.974335 21.963944 C 10.951462 21.941512 10.92971 21.918184 10.909303 21.893734 C 10.888673 21.869284 10.869387 21.843712 10.851223 21.817468 C 10.833283 21.790999 10.816465 21.763857 10.801216 21.735818 C 10.785743 21.707779 10.771839 21.679067 10.759282 21.649682 C 10.746724 21.620297 10.735511 21.590239 10.726093 21.559957 C 10.71645 21.52945 10.708377 21.498495 10.70165 21.467091 C 10.695147 21.435912 10.690213 21.404284 10.686625 21.372656 C 10.683262 21.340803 10.681243 21.308951 10.681019 21.277099 L 10.681019 14.665036 C 10.681243 14.632959 10.683037 14.601107 10.686401 14.569255 C 10.689989 14.537402 10.694922 14.505774 10.701426 14.47437 C 10.707929 14.443191 10.716002 14.412236 10.72542 14.381505 C 10.735063 14.350999 10.746051 14.320941 10.758609 14.291556 C 10.771167 14.262171 10.78507 14.233234 10.800543 14.205195 C 10.815792 14.177156 10.832611 14.14979 10.85055 14.123321 C 10.868714 14.096852 10.888 14.071505 10.908406 14.046831 C 10.929037 14.022381 10.950789 13.998828 10.973662 13.976396 C 10.996536 13.953965 11.020306 13.93288 11.045422 13.912692 C 11.070313 13.892728 11.096326 13.873886 11.123011 13.856389 C 11.149921 13.838893 11.177504 13.822742 11.205759 13.807938 C 11.234238 13.793357 11.26339 13.779899 11.292991 13.76801 C 11.322816 13.756122 11.35309 13.745579 11.383811 13.736606 C 11.414533 13.727858 11.44548 13.720456 11.477098 13.714399 C 11.508493 13.708567 11.540336 13.704305 11.57218 13.701614 C 11.604023 13.698697 11.63609 13.697576 11.667933 13.698025 L 13.639071 13.698025 C 13.67069 13.698249 13.702084 13.699819 13.733479 13.703184 C 13.765098 13.706548 13.796268 13.711259 13.827214 13.71754 C 13.858161 13.723821 13.888658 13.731671 13.918932 13.741093 C 13.949205 13.750289 13.978806 13.761056 14.007958 13.773169 C 14.03711 13.785506 14.06559 13.798965 14.093396 13.813994 C 14.121203 13.829023 14.148337 13.845174 14.174574 13.862894 C 14.200811 13.880391 14.226151 13.899233 14.250594 13.919421 C 14.275037 13.939385 14.298359 13.960695 14.320784 13.983126 C 14.342984 14.005333 14.364288 14.028886 14.384246 14.053111 C 14.404428 14.077561 14.423041 14.102909 14.440756 14.129153 C 14.458248 14.155398 14.474618 14.18254 14.489418 14.210355 C 14.504443 14.238169 14.517897 14.266881 14.530231 14.296042 C 14.54234 14.325203 14.553104 14.354812 14.562298 14.385094 C 14.571493 14.415152 14.579341 14.445883 14.58562 14.476838 C 14.591899 14.507793 14.596608 14.538972 14.599972 14.570376 C 14.603112 14.60178 14.604906 14.633408 14.604906 14.665036 Z M 14.604906 21.277099 " stroke="#000000" stroke-width="1" stroke-opacity="1" stroke-miterlimit="4"/><path stroke-linecap="butt" transform="matrix(17.419353, 0, 0, 17.414314, -16.25957, -22.342484)" fill="none" stroke-linejoin="round" d="M 12.363998 15.93801 L 12.919011 15.93801 " stroke="#000000" stroke-width="1" stroke-opacity="1" stroke-miterlimit="4"/><path stroke-linecap="butt" transform="matrix(17.419353, 0, 0, 17.414314, -16.25957, -22.342484)" fill="none" stroke-linejoin="round" d="M 12.363998 17.970058 L 12.919011 17.970058 " stroke="#000000" stroke-width="1" stroke-opacity="1" stroke-miterlimit="4"/><path stroke-linecap="butt" transform="matrix(17.419353, 0, 0, 17.414314, -16.25957, -22.342484)" fill="none" stroke-linejoin="round" d="M 12.363998 20.002106 L 12.919011 20.002106 " stroke="#000000" stroke-width="1" stroke-opacity="1" stroke-miterlimit="4"/><path stroke-linecap="butt" transform="matrix(17.419353, 0, 0, 17.414314, -16.25957, -22.342484)" fill="none" stroke-linejoin="round" d="M 18.799907 1.758987 L 6.481981 1.758987 C 6.437131 1.759211 6.392282 1.761454 6.347656 1.766165 C 6.302807 1.770651 6.258406 1.77738 6.214453 1.786128 C 6.170501 1.795101 6.126997 1.806092 6.083941 1.819327 C 6.040886 1.832561 5.998727 1.84759 5.957241 1.864862 C 5.915755 1.882134 5.875167 1.901425 5.835699 1.922735 C 5.796007 1.944045 5.757661 1.967149 5.720211 1.992272 C 5.682986 2.01717 5.646882 2.043864 5.612348 2.072576 C 5.57759 2.101063 5.544401 2.131121 5.512558 2.162974 C 5.480939 2.194826 5.450666 2.228024 5.422186 2.262793 C 5.393707 2.297561 5.367021 2.333676 5.34213 2.370911 C 5.317014 2.408372 5.293916 2.446729 5.272837 2.486432 C 5.251534 2.526136 5.232473 2.566512 5.215206 2.60801 C 5.197938 2.649508 5.182914 2.691903 5.169683 2.734746 C 5.156677 2.777814 5.145689 2.821331 5.136943 2.865296 C 5.127973 2.909486 5.12147 2.9539 5.116985 2.998538 C 5.1125 3.043176 5.110033 3.088039 5.110033 3.132901 L 5.110033 5.712048 C 5.109361 5.757359 5.11093 5.802894 5.114743 5.847981 C 5.118779 5.893292 5.124834 5.938379 5.133131 5.983017 C 5.141428 6.027655 5.151743 6.071845 5.164526 6.115586 C 5.177083 6.159103 5.191884 6.201946 5.208702 6.244341 C 5.225745 6.286512 5.244582 6.327786 5.265437 6.367938 C 5.286516 6.408314 5.30939 6.447569 5.334281 6.485477 C 5.358948 6.523611 5.385634 6.560398 5.414113 6.595839 C 5.442593 6.631281 5.472642 6.665152 5.504485 6.697677 C 5.536328 6.729978 5.569741 6.760933 5.6045 6.790094 C 5.639258 6.819255 5.675586 6.846621 5.713035 6.872192 C 5.750709 6.897764 5.78928 6.921541 5.829196 6.943299 C 5.869112 6.965058 5.909925 6.984797 5.951859 7.002518 C 5.993794 7.020239 6.036401 7.03594 6.07968 7.049399 C 6.12296 7.062858 6.166913 7.074298 6.211538 7.083495 C 6.255939 7.092692 6.300789 7.099645 6.346087 7.104356 C 6.391161 7.109291 6.436459 7.111758 6.481981 7.111982 L 15.374972 7.111982 L 15.374972 11.176078 C 15.374972 11.215333 15.37699 11.254812 15.380803 11.294066 C 15.384615 11.333097 15.390445 11.372127 15.39807 11.410709 C 15.405918 11.449515 15.415337 11.487648 15.426773 11.525333 C 15.43821 11.563017 15.451441 11.600253 15.466689 11.636592 C 15.481714 11.67293 15.498533 11.708596 15.517145 11.743365 C 15.535758 11.778133 15.55594 11.81178 15.577916 11.84453 C 15.599668 11.877504 15.623214 11.909132 15.648106 11.939414 C 15.673222 11.96992 15.699683 11.999081 15.72749 12.026896 C 15.755296 12.054935 15.784448 12.081404 15.814946 12.106302 C 15.845444 12.131425 15.877063 12.154754 15.909803 12.176737 C 15.942543 12.198495 15.976404 12.218907 16.011163 12.237301 C 16.045921 12.255919 16.081577 12.272742 16.117905 12.287996 C 16.154457 12.303025 16.191458 12.316259 16.229132 12.327699 C 16.266805 12.339139 16.305152 12.348784 16.343722 12.356411 C 16.382293 12.364038 16.421312 12.36987 16.460555 12.373683 C 16.499799 12.377496 16.539042 12.379515 16.57851 12.379515 C 16.617977 12.379515 16.657221 12.377496 16.696464 12.373683 C 16.735707 12.36987 16.774726 12.364038 16.813297 12.356411 C 16.851868 12.348784 16.890214 12.339139 16.927887 12.327699 C 16.965561 12.316259 17.002562 12.303025 17.039114 12.287996 C 17.075442 12.272742 17.111098 12.255919 17.145856 12.237301 C 17.180615 12.218907 17.214252 12.198495 17.247216 12.176737 C 17.279956 12.154754 17.311575 12.131425 17.342073 12.106302 C 17.372571 12.081404 17.401723 12.054935 17.42953 12.026896 C 17.457336 11.999081 17.483798 11.96992 17.508913 11.939414 C 17.533805 11.909132 17.557351 11.877504 17.579103 11.84453 C 17.601079 11.81178 17.621261 11.778133 17.639874 11.743365 C 17.658487 11.708596 17.675305 11.67293 17.69033 11.636592 C 17.705579 11.600253 17.718809 11.563017 17.730246 11.525333 C 17.741682 11.487648 17.751101 11.449515 17.75895 11.410709 C 17.766574 11.372127 17.772404 11.333097 17.776217 11.294066 C 17.780029 11.254812 17.782047 11.215333 17.782047 11.176078 L 17.782047 7.334052 C 17.780926 7.374204 17.781599 7.41458 17.784514 7.454732 C 17.787429 7.495108 17.792362 7.535036 17.79909 7.574739 C 17.806042 7.614443 17.814787 7.653697 17.825775 7.692503 C 17.836539 7.731534 17.849097 7.769667 17.863897 7.807127 C 17.878474 7.844812 17.894844 7.881599 17.913232 7.917489 C 17.931396 7.953379 17.951578 7.988372 17.97333 8.022243 C 17.995082 8.056114 18.018628 8.088864 18.043744 8.120492 C 18.068636 8.15212 18.095321 8.182402 18.123352 8.211338 C 18.151607 8.240275 18.180984 8.267641 18.21193 8.293661 C 18.242652 8.319681 18.274719 8.343907 18.307908 8.366787 C 18.341321 8.389443 18.375631 8.410528 18.411062 8.429819 C 18.446493 8.44911 18.482597 8.466606 18.519822 8.482308 C 18.557047 8.49801 18.594721 8.511917 18.633291 8.523806 C 18.671862 8.535694 18.710881 8.545564 18.750349 8.553639 C 18.789816 8.561715 18.829732 8.567771 18.869873 8.571809 C 18.910013 8.575846 18.950153 8.577865 18.990518 8.577865 C 19.030882 8.577865 19.071023 8.575846 19.111163 8.571809 C 19.151304 8.567771 19.190995 8.561715 19.230687 8.553639 C 19.270155 8.545564 19.309174 8.535694 19.347745 8.523806 C 19.386315 8.511917 19.423989 8.49801 19.461214 8.482308 C 19.498215 8.466606 19.534543 8.44911 19.569974 8.429819 C 19.605405 8.410528 19.639715 8.389443 19.672904 8.366787 C 19.706317 8.343907 19.738384 8.319681 19.769106 8.293661 C 19.800052 8.267641 19.829429 8.240275 19.857684 8.211338 C 19.885715 8.182402 19.912176 8.15212 19.937292 8.120492 C 19.962407 8.088864 19.985953 8.056114 20.007706 8.022243 C 20.029458 7.988372 20.049416 7.953379 20.067804 7.917489 C 20.086192 7.881599 20.102562 7.844812 20.117138 7.807127 C 20.131714 7.769667 20.144497 7.731534 20.15526 7.692503 C 20.166024 7.653697 20.174994 7.614443 20.181722 7.574739 C 20.188673 7.535036 20.193607 7.495108 20.196522 7.454732 C 20.199213 7.41458 20.20011 7.374204 20.198989 7.334052 L 20.198989 3.134023 C 20.198765 3.088487 20.196298 3.043176 20.191589 2.998089 C 20.186879 2.952778 20.179928 2.907916 20.170734 2.863278 C 20.161539 2.818864 20.150103 2.774898 20.136648 2.731382 C 20.123193 2.688089 20.10772 2.64547 20.090004 2.603524 C 20.072289 2.561577 20.052555 2.520752 20.030803 2.480825 C 20.009051 2.440897 19.985281 2.402091 19.959716 2.364406 C 19.934377 2.326946 19.907018 2.290608 19.877866 2.255615 C 19.848714 2.220846 19.817768 2.187424 19.785476 2.155571 C 19.75296 2.123719 19.719099 2.093437 19.683668 2.064949 C 19.648236 2.036461 19.611684 2.009768 19.573562 1.984869 C 19.53544 1.959971 19.496421 1.936867 19.456056 1.916005 C 19.415692 1.89492 19.37443 1.875854 19.332271 1.858806 C 19.290113 1.841982 19.247282 1.826953 19.203553 1.814392 C 19.160049 1.801606 19.115872 1.791063 19.071023 1.782539 C 19.026398 1.77424 18.981324 1.768183 18.936026 1.764146 C 18.890728 1.760108 18.84543 1.758538 18.799907 1.758987 Z M 18.799907 1.758987 " stroke="#000000" stroke-width="1" stroke-opacity="1" stroke-miterlimit="4"/><path stroke-linecap="butt" transform="matrix(17.419353, 0, 0, 17.414314, -16.25957, -22.342484)" fill="none" stroke-linejoin="round" d="M 14.175023 5.299985 C 14.214714 5.300434 14.254182 5.302677 14.293425 5.306715 C 14.332893 5.310977 14.371912 5.317033 14.410707 5.325108 C 14.449502 5.333184 14.487848 5.343053 14.525746 5.354942 C 14.56342 5.36683 14.600645 5.380289 14.636973 5.395767 C 14.673525 5.411244 14.709181 5.428516 14.743939 5.447359 C 14.778697 5.466425 14.812559 5.487062 14.845299 5.509269 C 14.878039 5.531476 14.909658 5.555253 14.939932 5.5806 C 14.970429 5.606172 14.999581 5.632865 15.027388 5.661129 C 15.055195 5.689392 15.081432 5.718777 15.106323 5.749732 C 15.131215 5.780463 15.154537 5.81254 15.176289 5.845514 C 15.198041 5.878712 15.218223 5.912807 15.236611 5.9478 C 15.255 5.982793 15.271594 6.018683 15.286394 6.05547 C 15.301419 6.092257 15.314425 6.129493 15.325638 6.167626 C 15.33685 6.205535 15.346044 6.243893 15.353444 6.282923 C 15.361069 6.321729 15.366451 6.360984 15.370039 6.400463 C 15.373627 6.439942 15.375196 6.479421 15.374972 6.5189 L 15.374972 10.999993 " stroke="#000000" stroke-width="1" stroke-opacity="1" stroke-miterlimit="4"/></svg>