<svg xmlns="http://www.w3.org/2000/svg" xmlns:xlink="http://www.w3.org/1999/xlink" width="500" zoomAndPan="magnify" viewBox="0 0 375 374.999991" height="500" preserveAspectRatio="xMidYMid meet" version="1.0"><path fill="#000000" d="M 361.378906 14.003906 C 352.589844 5.214844 340.910156 0.375 328.480469 0.375 C 316.050781 0.375 304.371094 5.214844 295.578125 14.003906 C 295.355469 14.230469 295.136719 14.457031 294.933594 14.699219 C 294.421875 15.300781 243.402344 74.703125 224.949219 92.355469 C 224.1875 93.082031 223.242188 93.890625 222.128906 94.777344 L 190.160156 62.808594 C 181.445312 54.089844 169.855469 49.292969 157.523438 49.292969 C 145.195312 49.292969 133.605469 54.089844 124.890625 62.808594 C 116.171875 71.527344 111.367188 83.121094 111.367188 95.445312 C 111.367188 96.972656 111.441406 98.484375 111.585938 99.980469 L 4.808594 189.5 C 2.121094 191.75 0.503906 195.023438 0.351562 198.527344 C 0.195312 202.035156 1.519531 205.4375 3.996094 207.917969 L 167.453125 371.382812 C 169.804688 373.734375 172.988281 375.046875 176.296875 375.046875 C 176.476562 375.046875 176.660156 375.042969 176.839844 375.035156 C 180.347656 374.878906 183.621094 373.261719 185.871094 370.578125 L 275.398438 263.785156 C 276.890625 263.925781 278.410156 264.003906 279.929688 264.003906 C 292.257812 264.003906 303.847656 259.203125 312.5625 250.488281 C 330.554688 232.496094 330.554688 203.210938 312.5625 185.210938 L 280.597656 153.238281 C 281.488281 152.125 282.292969 151.179688 283.019531 150.417969 C 300.664062 131.972656 360.070312 80.957031 360.667969 80.445312 C 360.910156 80.238281 361.140625 80.023438 361.367188 79.804688 C 370.160156 71.015625 375 59.328125 375 46.898438 C 375.007812 34.464844 370.167969 22.785156 361.378906 14.003906 Z M 175.488281 344.054688 L 31.328125 199.886719 L 64.128906 172.390625 C 66.433594 175.429688 66.695312 178.214844 67.085938 182.984375 C 67.699219 190.464844 68.546875 200.714844 78.914062 211.078125 C 89.277344 221.445312 99.527344 222.289062 107.015625 222.910156 C 112.738281 223.378906 115.609375 223.617188 119.488281 227.496094 C 123.363281 231.371094 123.597656 234.238281 124.066406 239.953125 C 124.679688 247.4375 125.519531 257.6875 135.882812 268.046875 C 146.242188 278.402344 156.488281 279.242188 163.972656 279.855469 C 169.683594 280.316406 172.550781 280.554688 176.414062 284.421875 C 180.285156 288.292969 180.515625 291.160156 180.984375 296.871094 C 181.582031 304.175781 182.457031 314.109375 192.125 324.214844 Z M 208.394531 304.800781 C 206.503906 301.996094 206.257812 299.273438 205.894531 294.835938 C 205.285156 287.355469 204.445312 277.109375 194.082031 266.746094 C 183.730469 256.386719 173.484375 255.546875 166 254.9375 C 160.289062 254.472656 157.421875 254.238281 153.554688 250.367188 C 149.679688 246.492188 149.445312 243.625 148.976562 237.914062 C 148.363281 230.429688 147.519531 220.179688 137.160156 209.820312 C 126.796875 199.453125 116.546875 198.613281 109.0625 197.996094 C 103.339844 197.523438 100.464844 197.289062 96.582031 193.398438 C 92.703125 189.519531 92.464844 186.652344 91.996094 180.933594 C 91.449219 174.292969 90.6875 165.472656 83.289062 156.324219 L 121.511719 124.285156 C 122.566406 125.597656 123.683594 126.875 124.894531 128.082031 L 247.300781 250.488281 C 248.507812 251.695312 249.785156 252.8125 251.097656 253.867188 Z M 343.992188 61.816406 C 338.242188 66.757812 282.863281 114.417969 264.953125 133.140625 C 261.695312 136.550781 258.613281 140.746094 254.335938 146.558594 L 254.015625 146.992188 C 250.359375 151.960938 250.878906 158.867188 255.25 163.234375 L 294.886719 202.878906 C 303.132812 211.132812 303.136719 224.558594 294.890625 232.808594 C 290.894531 236.800781 285.582031 239 279.933594 239 C 274.285156 239 268.972656 236.800781 264.976562 232.808594 L 142.570312 110.398438 C 138.574219 106.402344 136.371094 101.097656 136.371094 95.441406 C 136.371094 89.796875 138.574219 84.480469 142.570312 80.480469 C 146.5625 76.488281 151.875 74.289062 157.527344 74.289062 C 163.183594 74.289062 168.492188 76.488281 172.484375 80.480469 L 212.125 120.128906 C 216.492188 124.5 223.402344 125.023438 228.371094 121.359375 L 228.980469 120.917969 C 234.714844 116.691406 238.867188 113.640625 242.238281 110.414062 C 260.949219 92.515625 308.617188 37.136719 313.558594 31.378906 C 317.589844 27.5 322.871094 25.371094 328.480469 25.371094 C 334.230469 25.371094 339.632812 27.613281 343.699219 31.683594 C 347.765625 35.746094 350.003906 41.144531 350.003906 46.894531 C 350.003906 52.507812 347.875 57.789062 343.992188 61.816406 Z M 343.992188 61.816406 " fill-opacity="1" fill-rule="nonzero"/></svg>