<svg xmlns="http://www.w3.org/2000/svg" xmlns:xlink="http://www.w3.org/1999/xlink" width="500" zoomAndPan="magnify" viewBox="0 0 375 374.999991" height="500" preserveAspectRatio="xMidYMid meet" version="1.0"><defs><clipPath id="id1"><path d="M 0 283.652344 L 375 283.652344 L 375 327.019531 L 0 327.019531 Z M 0 283.652344 " clip-rule="nonzero"/></clipPath><clipPath id="id2"><path d="M 0 48.046875 L 375 48.046875 L 375 92 L 0 92 Z M 0 48.046875 " clip-rule="nonzero"/></clipPath></defs><g clip-path="url(#id1)"><path fill="#ffffff" d="M 21.636719 327.019531 L 353.363281 327.019531 C 365.3125 327.019531 375 317.332031 375 305.375 C 375 293.421875 365.3125 283.734375 353.363281 283.734375 L 21.636719 283.734375 C 9.6875 283.734375 0 293.421875 0 305.375 C 0 317.332031 9.6875 327.019531 21.636719 327.019531 " fill-opacity="1" fill-rule="nonzero"/></g><path fill="#ffffff" d="M 21.636719 206.785156 L 353.363281 206.785156 C 365.3125 206.785156 375 197.097656 375 185.140625 C 375 173.1875 365.3125 163.503906 353.363281 163.503906 L 21.636719 163.503906 C 9.6875 163.503906 0 173.1875 0 185.140625 C 0 197.097656 9.6875 206.785156 21.636719 206.785156 " fill-opacity="1" fill-rule="nonzero"/><g clip-path="url(#id2)"><path fill="#ffffff" d="M 0 69.722656 C 0 81.671875 9.6875 91.359375 21.636719 91.359375 L 353.363281 91.359375 C 365.3125 91.359375 375 81.671875 375 69.722656 C 375 57.765625 365.3125 48.078125 353.363281 48.078125 L 21.636719 48.078125 C 9.6875 48.078125 0 57.765625 0 69.722656 " fill-opacity="1" fill-rule="nonzero"/></g></svg>