<svg xmlns="http://www.w3.org/2000/svg" xmlns:xlink="http://www.w3.org/1999/xlink" width="500" zoomAndPan="magnify" viewBox="0 0 375 374.999991" height="500" preserveAspectRatio="xMidYMid meet" version="1.0"><defs><clipPath id="id1"><path d="M 49.671875 257.898438 L 325.671875 257.898438 L 325.671875 289.722656 L 49.671875 289.722656 Z M 49.671875 257.898438 " clip-rule="nonzero"/></clipPath><clipPath id="id2"><path d="M 49.671875 169 L 325.671875 169 L 325.671875 202 L 49.671875 202 Z M 49.671875 169 " clip-rule="nonzero"/></clipPath><clipPath id="id3"><path d="M 49.671875 85 L 325.671875 85 L 325.671875 117 L 49.671875 117 Z M 49.671875 85 " clip-rule="nonzero"/></clipPath></defs><path fill="#4c69f6" d="M 187.5 0 C 83.945312 0 0 83.945312 0 187.5 C 0 291.054688 83.945312 375 187.5 375 C 291.054688 375 375 291.054688 375 187.5 C 375 83.945312 291.054688 0 187.5 0 " fill-opacity="1" fill-rule="nonzero"/><g clip-path="url(#id1)"><path fill="#ffffff" d="M 65.597656 289.722656 L 309.75 289.722656 C 318.542969 289.722656 325.671875 282.613281 325.671875 273.839844 C 325.671875 265.066406 318.542969 257.960938 309.75 257.960938 L 65.597656 257.960938 C 56.800781 257.960938 49.671875 265.066406 49.671875 273.839844 C 49.671875 282.613281 56.800781 289.722656 65.597656 289.722656 " fill-opacity="1" fill-rule="nonzero"/></g><g clip-path="url(#id2)"><path fill="#ffffff" d="M 65.597656 201.484375 L 309.75 201.484375 C 318.542969 201.484375 325.671875 194.375 325.671875 185.601562 C 325.671875 176.828125 318.542969 169.71875 309.75 169.71875 L 65.597656 169.71875 C 56.800781 169.71875 49.671875 176.828125 49.671875 185.601562 C 49.671875 194.375 56.800781 201.484375 65.597656 201.484375 " fill-opacity="1" fill-rule="nonzero"/></g><g clip-path="url(#id3)"><path fill="#ffffff" d="M 49.671875 100.894531 C 49.671875 109.664062 56.800781 116.777344 65.597656 116.777344 L 309.75 116.777344 C 318.542969 116.777344 325.671875 109.664062 325.671875 100.894531 C 325.671875 92.121094 318.542969 85.011719 309.75 85.011719 L 65.597656 85.011719 C 56.800781 85.011719 49.671875 92.121094 49.671875 100.894531 " fill-opacity="1" fill-rule="nonzero"/></g></svg>