<svg xmlns="http://www.w3.org/2000/svg" xmlns:xlink="http://www.w3.org/1999/xlink" width="500" zoomAndPan="magnify" viewBox="0 0 375 374.999991" height="500" preserveAspectRatio="xMidYMid meet" version="1.0"><defs><clipPath id="id1"><path d="M 69 2 L 307.96875 2 L 307.96875 373 L 69 373 Z M 69 2 " clip-rule="nonzero"/></clipPath></defs><g clip-path="url(#id1)"><path fill="#000000" d="M 188.917969 2.164062 C 188.046875 2.164062 187.1875 2.25 186.335938 2.417969 C 185.484375 2.585938 184.65625 2.839844 183.855469 3.171875 C 183.050781 3.503906 182.289062 3.910156 181.566406 4.394531 C 180.84375 4.878906 180.175781 5.425781 179.5625 6.039062 C 178.949219 6.65625 178.402344 7.324219 177.917969 8.046875 C 177.433594 8.769531 177.027344 9.53125 176.695312 10.335938 C 176.363281 11.140625 176.113281 11.964844 175.941406 12.820312 C 175.773438 13.671875 175.6875 14.53125 175.6875 15.402344 L 175.6875 327.640625 L 92.457031 244.320312 C 91.84375 243.703125 91.171875 243.15625 90.449219 242.671875 C 89.726562 242.191406 88.964844 241.78125 88.160156 241.449219 C 87.359375 241.117188 86.53125 240.867188 85.675781 240.695312 C 84.824219 240.527344 83.964844 240.445312 83.09375 240.445312 C 82.226562 240.445312 81.363281 240.527344 80.511719 240.699219 C 79.660156 240.871094 78.832031 241.121094 78.027344 241.453125 C 77.226562 241.785156 76.460938 242.195312 75.738281 242.679688 C 75.015625 243.160156 74.347656 243.710938 73.734375 244.324219 C 73.121094 244.941406 72.570312 245.609375 72.085938 246.332031 C 71.605469 247.058594 71.195312 247.820312 70.863281 248.625 C 70.53125 249.425781 70.28125 250.257812 70.109375 251.109375 C 69.941406 251.960938 69.855469 252.824219 69.855469 253.695312 C 69.855469 254.5625 69.9375 255.425781 70.109375 256.277344 C 70.277344 257.132812 70.527344 257.960938 70.859375 258.765625 C 71.191406 259.566406 71.601562 260.332031 72.082031 261.054688 C 72.566406 261.777344 73.113281 262.449219 73.726562 263.0625 L 179.550781 368.972656 C 180.164062 369.585938 180.835938 370.136719 181.558594 370.621094 C 182.28125 371.105469 183.042969 371.515625 183.847656 371.847656 C 184.648438 372.183594 185.480469 372.433594 186.332031 372.605469 C 187.183594 372.773438 188.046875 372.859375 188.917969 372.859375 C 189.785156 372.859375 190.648438 372.773438 191.5 372.605469 C 192.355469 372.433594 193.183594 372.183594 193.988281 371.847656 C 194.789062 371.515625 195.554688 371.105469 196.277344 370.621094 C 197 370.136719 197.667969 369.585938 198.28125 368.972656 L 304.105469 263.0625 C 304.722656 262.449219 305.269531 261.78125 305.753906 261.054688 C 306.238281 260.332031 306.648438 259.566406 306.980469 258.765625 C 307.3125 257.960938 307.566406 257.128906 307.734375 256.277344 C 307.90625 255.421875 307.988281 254.5625 307.988281 253.691406 C 307.988281 252.820312 307.90625 251.957031 307.734375 251.101562 C 307.566406 250.25 307.316406 249.421875 306.984375 248.617188 C 306.648438 247.8125 306.242188 247.046875 305.757812 246.324219 C 305.273438 245.601562 304.726562 244.929688 304.109375 244.3125 C 303.496094 243.699219 302.828125 243.148438 302.101562 242.664062 C 301.378906 242.183594 300.617188 241.773438 299.8125 241.441406 C 299.007812 241.105469 298.179688 240.855469 297.328125 240.6875 C 296.472656 240.515625 295.613281 240.433594 294.742188 240.433594 C 293.871094 240.433594 293.011719 240.515625 292.15625 240.6875 C 291.304688 240.859375 290.476562 241.109375 289.671875 241.441406 C 288.867188 241.777344 288.105469 242.183594 287.382812 242.667969 C 286.660156 243.152344 285.988281 243.703125 285.375 244.320312 L 202.144531 327.640625 L 202.144531 15.402344 C 202.144531 14.53125 202.058594 13.671875 201.890625 12.820312 C 201.722656 11.964844 201.46875 11.140625 201.136719 10.335938 C 200.804688 9.53125 200.398438 8.769531 199.914062 8.046875 C 199.433594 7.324219 198.882812 6.65625 198.269531 6.039062 C 197.65625 5.425781 196.988281 4.878906 196.265625 4.394531 C 195.542969 3.910156 194.78125 3.503906 193.980469 3.171875 C 193.175781 2.839844 192.347656 2.585938 191.496094 2.417969 C 190.644531 2.25 189.785156 2.164062 188.917969 2.164062 Z M 188.917969 2.164062 " fill-opacity="1" fill-rule="evenodd"/></g></svg>