<svg xmlns="http://www.w3.org/2000/svg" xmlns:xlink="http://www.w3.org/1999/xlink" width="500" zoomAndPan="magnify" viewBox="0 0 375 374.999991" height="500" preserveAspectRatio="xMidYMid meet" version="1.0"><path fill="#3aaa35" d="M 0 187.5 C 0 291.050781 83.949219 375 187.5 375 C 291.050781 375 375 291.050781 375 187.5 C 375 83.945312 291.050781 0 187.5 0 C 83.949219 0 0 83.945312 0 187.5 " fill-opacity="1" fill-rule="nonzero"/><path fill="#f1f1f0" d="M 374.96875 190.890625 C 374.96875 190.886719 374.96875 190.878906 374.96875 190.875 C 374.96875 190.878906 374.96875 190.886719 374.96875 190.890625 M 374.972656 190.75 C 374.972656 190.746094 374.972656 190.734375 374.972656 190.726562 C 374.972656 190.738281 374.972656 190.738281 374.972656 190.75 M 374.972656 190.613281 C 374.972656 190.601562 374.972656 190.597656 374.972656 190.585938 C 374.972656 190.597656 374.972656 190.601562 374.972656 190.613281 M 374.976562 190.46875 C 374.976562 190.457031 374.976562 190.453125 374.976562 190.441406 C 374.976562 190.453125 374.976562 190.457031 374.976562 190.46875 M 374.976562 190.332031 C 374.976562 190.320312 374.976562 190.308594 374.980469 190.292969 C 374.976562 190.308594 374.976562 190.320312 374.976562 190.332031 M 374.980469 190.183594 C 374.980469 190.171875 374.980469 190.164062 374.980469 190.152344 C 374.980469 190.164062 374.980469 190.171875 374.980469 190.183594 M 374.980469 190.042969 C 374.980469 190.035156 374.984375 190.019531 374.984375 190.011719 C 374.984375 190.019531 374.980469 190.039062 374.980469 190.042969 M 374.984375 189.898438 C 374.984375 189.882812 374.984375 189.890625 374.984375 189.871094 C 374.984375 189.882812 374.984375 189.890625 374.984375 189.898438 M 374.984375 189.757812 C 374.984375 189.75 374.984375 189.742188 374.984375 189.734375 C 374.984375 189.742188 374.984375 189.75 374.984375 189.757812 M 374.992188 189.234375 C 374.992188 189.214844 374.992188 189.195312 374.992188 189.183594 C 374.992188 189.195312 374.992188 189.222656 374.992188 189.234375 M 374.992188 189.09375 C 374.992188 189.074219 374.992188 189.054688 374.992188 189.039062 C 374.992188 189.0625 374.992188 189.070312 374.992188 189.09375 M 374.996094 188.953125 C 374.996094 188.929688 374.996094 188.917969 374.996094 188.890625 C 374.996094 188.914062 374.996094 188.929688 374.996094 188.953125 M 374.996094 188.808594 C 374.996094 188.789062 374.996094 188.765625 374.996094 188.746094 C 374.996094 188.765625 374.996094 188.792969 374.996094 188.808594 M 374.996094 188.664062 C 374.996094 188.644531 374.996094 188.621094 374.996094 188.59375 C 374.996094 188.617188 374.996094 188.644531 374.996094 188.664062 M 374.996094 188.523438 C 374.996094 188.496094 374.996094 188.476562 374.996094 188.449219 C 374.996094 188.472656 374.996094 188.5 374.996094 188.523438 M 374.996094 188.378906 C 374.996094 188.351562 374.996094 188.324219 375 188.300781 C 374.996094 188.332031 374.996094 188.347656 374.996094 188.378906 M 375 188.230469 C 375 188.203125 375 188.183594 375 188.15625 C 375 188.179688 375 188.207031 375 188.230469 M 375 188.085938 C 375 188.058594 375 188.027344 375 188.007812 C 375 188.027344 375 188.0625 375 188.085938 M 375 187.9375 C 375 187.914062 375 187.875 375 187.851562 C 375 187.882812 375 187.910156 375 187.9375 M 375 187.792969 C 375 187.761719 375 187.726562 375 187.695312 C 375 187.726562 375 187.757812 375 187.792969 M 375 187.644531 C 375 187.597656 375 187.546875 375 187.5 C 375 187.546875 375 187.601562 375 187.644531 M 375 187.5 C 375 187.453125 375 187.40625 375 187.363281 C 375 187.410156 375 187.453125 375 187.5 M 375 187.269531 C 375 187.257812 375 187.246094 375 187.238281 C 375 187.246094 375 187.257812 375 187.269531 " fill-opacity="1" fill-rule="nonzero"/><path fill="#37a032" d="M 208.859375 373.753906 L 58.480469 223.371094 C 62.0625 222.808594 65.601562 222.539062 69.09375 222.539062 C 109.640625 222.539062 143.445312 258.789062 158.824219 293.382812 C 178.675781 231.617188 227.203125 176.472656 286.765625 152.207031 C 273.507812 127.585938 273.273438 94.839844 290.230469 73.503906 L 372.226562 155.496094 C 373.996094 165.820312 374.984375 176.410156 375 187.238281 C 375 187.246094 375 187.257812 375 187.269531 C 375 187.300781 375 187.332031 375 187.363281 C 375 187.40625 375 187.453125 375 187.5 C 375 187.546875 375 187.597656 375 187.644531 C 375 187.664062 375 187.675781 375 187.695312 C 375 187.726562 375 187.761719 375 187.792969 C 375 187.808594 375 187.832031 375 187.851562 C 375 187.875 375 187.914062 375 187.9375 C 375 187.960938 375 187.980469 375 188.007812 C 375 188.027344 375 188.058594 375 188.085938 C 375 188.109375 375 188.132812 375 188.15625 C 375 188.183594 375 188.203125 375 188.230469 C 375 188.253906 375 188.277344 375 188.300781 C 374.996094 188.324219 374.996094 188.351562 374.996094 188.378906 C 374.996094 188.398438 374.996094 188.425781 374.996094 188.449219 C 374.996094 188.476562 374.996094 188.496094 374.996094 188.523438 C 374.996094 188.546875 374.996094 188.570312 374.996094 188.59375 C 374.996094 188.621094 374.996094 188.644531 374.996094 188.664062 C 374.996094 188.695312 374.996094 188.714844 374.996094 188.746094 C 374.996094 188.765625 374.996094 188.789062 374.996094 188.808594 C 374.996094 188.839844 374.996094 188.859375 374.996094 188.890625 C 374.996094 188.917969 374.996094 188.929688 374.996094 188.953125 C 374.992188 188.976562 374.992188 189.015625 374.992188 189.039062 C 374.992188 189.054688 374.992188 189.074219 374.992188 189.09375 C 374.992188 189.121094 374.992188 189.152344 374.992188 189.183594 C 374.992188 189.195312 374.992188 189.214844 374.992188 189.234375 C 374.988281 189.402344 374.988281 189.566406 374.984375 189.734375 C 374.984375 189.742188 374.984375 189.75 374.984375 189.757812 C 374.984375 189.796875 374.984375 189.832031 374.984375 189.871094 C 374.984375 189.890625 374.984375 189.882812 374.984375 189.898438 C 374.984375 189.9375 374.984375 189.972656 374.984375 190.011719 C 374.984375 190.019531 374.980469 190.035156 374.980469 190.042969 C 374.980469 190.082031 374.980469 190.113281 374.980469 190.152344 C 374.980469 190.164062 374.980469 190.171875 374.980469 190.183594 C 374.980469 190.222656 374.980469 190.257812 374.980469 190.292969 C 374.976562 190.308594 374.976562 190.320312 374.976562 190.332031 C 374.976562 190.363281 374.976562 190.40625 374.976562 190.441406 C 374.976562 190.453125 374.976562 190.457031 374.976562 190.46875 C 374.976562 190.507812 374.972656 190.546875 374.972656 190.585938 C 374.972656 190.597656 374.972656 190.601562 374.972656 190.613281 C 374.972656 190.648438 374.972656 190.695312 374.972656 190.726562 C 374.972656 190.734375 374.972656 190.746094 374.972656 190.75 C 374.96875 190.792969 374.96875 190.832031 374.96875 190.875 C 374.96875 190.878906 374.96875 190.886719 374.96875 190.890625 C 373.285156 285.679688 301.246094 363.269531 208.859375 373.753906 " fill-opacity="1" fill-rule="nonzero"/><path fill="#ffffff" d="M 56.375 221.5 L 124.601562 180.421875 L 158.019531 243.777344 C 158.019531 243.777344 172.640625 196.433594 211.628906 144.917969 C 250.617188 93.398438 291.695312 73.207031 291.695312 73.207031 C 291.695312 73.207031 289.605469 108.019531 290.996094 127.511719 C 292.386719 147.007812 296.566406 165.109375 296.566406 165.109375 C 296.566406 165.109375 256.183594 183.210938 214.414062 234.035156 C 172.640625 284.859375 159.414062 310.617188 159.414062 310.617188 C 159.414062 310.617188 133.652344 275.804688 107.195312 254.921875 C 80.742188 234.035156 56.375 221.5 56.375 221.5 " fill-opacity="1" fill-rule="nonzero"/></svg>